<svg width="258" height="258" viewBox="0 0 258 258" fill="none" xmlns="http://www.w3.org/2000/svg">
<path d="M121.776 155.832C121.776 155.832 130.91 139.63 136.121 136.895C141.333 134.16 208.464 138.701 214.553 139.63C220.642 140.558 223.274 146.544 223.274 146.544C223.274 146.544 206.142 217.752 192.623 223.325C179.104 228.898 176.008 226.369 172.551 218.423C169.094 210.476 121.776 155.832 121.776 155.832Z" fill="white"/>
<path d="M122.86 155.419C125.337 150.982 128.072 146.75 131.116 142.726C132.045 141.436 133.077 140.249 134.16 139.114C134.367 138.856 134.625 138.649 134.883 138.443L135.038 138.288L135.089 138.236L135.502 137.927C135.554 137.875 135.966 137.617 135.657 137.824L135.966 137.617C136.276 137.411 135.812 137.669 136.07 137.566C136.328 137.462 136.018 137.566 135.966 137.617C136.018 137.566 136.121 137.566 136.173 137.514C135.76 137.669 136.121 137.514 136.224 137.514C136.482 137.462 136.689 137.411 136.947 137.359L137.153 137.308C136.998 137.308 137.05 137.308 137.153 137.308L137.669 137.256C138.03 137.204 138.392 137.204 138.701 137.153C143.19 136.843 147.628 136.792 152.117 136.946C158.412 137.05 164.656 137.308 170.951 137.617C177.504 137.927 184.058 138.288 190.611 138.701C195.926 139.062 201.24 139.423 206.555 139.836C208.258 139.991 209.961 140.094 211.664 140.3L212.541 140.404L212.902 140.455H213.057H213.16C214.398 140.61 215.637 140.971 216.772 141.539C218.32 142.364 219.61 143.448 220.694 144.841C221.261 145.615 221.777 146.441 222.242 147.266C222.293 147.215 222.345 147.473 222.242 147.266C222.242 147.318 222.19 147.421 222.19 147.473C222.087 147.782 222.035 148.092 221.932 148.402C221.158 151.652 220.281 154.852 219.455 158.051C218.01 163.417 216.514 168.784 214.914 174.098C213.057 180.342 211.044 186.586 208.826 192.726C206.813 198.557 204.491 204.233 201.911 209.857C200.828 212.179 199.641 214.398 198.299 216.565C197.835 217.339 197.164 218.32 196.596 219.145C196.287 219.558 196.029 219.919 195.719 220.28L195.513 220.538C195.306 220.796 195.564 220.487 195.41 220.642L194.945 221.158L194.532 221.57L194.326 221.777C194.274 221.828 194.171 221.932 194.429 221.725L194.274 221.828L193.862 222.19C193.5 222.448 193.758 222.241 193.862 222.19L193.604 222.344L193.397 222.448C193.139 222.602 193.346 222.448 193.449 222.448C193.294 222.499 193.139 222.602 192.984 222.706C193.346 222.499 193.139 222.654 193.036 222.706C192.778 222.809 192.52 222.912 192.21 223.015C191.54 223.273 190.92 223.531 190.25 223.789C187.154 224.924 183.438 226.214 180.136 225.337C175.75 224.15 174.77 219.352 172.602 215.946C170.435 212.54 167.855 209.29 165.378 206.09C161.715 201.395 157.896 196.751 154.078 192.107C149.95 187.102 145.77 182.096 141.591 177.143C137.927 172.808 134.264 168.526 130.6 164.191C128.381 161.56 126.111 158.928 123.84 156.348L122.912 155.264C122.447 154.748 120.383 156.245 120.744 156.709C122.034 158.206 123.273 159.65 124.563 161.147C127.762 164.862 130.961 168.577 134.109 172.292C138.237 177.143 142.365 182.045 146.441 186.947C150.621 191.952 154.697 196.957 158.825 202.014C162.024 205.987 165.172 209.96 168.165 214.088C169.094 215.378 170.022 216.668 170.848 218.062C171.88 219.816 172.499 221.725 173.634 223.48C175.079 225.647 177.143 227.04 179.775 227.298C181.426 227.401 183.129 227.195 184.728 226.782C187.102 226.214 189.424 225.44 191.694 224.512C195.719 222.912 198.299 219.506 200.466 215.946C203.356 211.199 205.626 206.039 207.69 200.879C210.167 194.738 212.283 188.495 214.347 182.2C216.256 176.214 218.062 170.177 219.765 164.14C221.003 159.702 222.19 155.264 223.377 150.775C223.686 149.588 223.996 148.402 224.306 147.163C224.46 146.596 224.615 146.286 224.306 145.718C222.964 143.035 220.694 140.868 217.907 139.681C216.359 139.165 214.76 138.856 213.16 138.804C208.877 138.391 204.594 138.082 200.312 137.772C194.016 137.308 187.721 136.946 181.426 136.585C174.77 136.224 168.062 135.914 161.405 135.656C155.936 135.45 150.414 135.347 144.945 135.45C143.139 135.502 141.333 135.553 139.578 135.76C138.237 135.811 136.895 136.224 135.708 136.895C133.077 138.546 131.013 141.229 129.155 143.654C127.091 146.441 125.182 149.33 123.324 152.272C122.499 153.665 121.622 155.006 120.848 156.4C120.538 156.916 121.364 156.761 121.57 156.658C122.034 156.296 122.499 155.935 122.86 155.419Z" fill="#18181B"/>
<path d="M129.207 153.51C129.207 153.51 133.644 141.487 139.785 140.868C145.925 140.249 209.703 139.062 215.172 147.008C220.642 154.955 191.901 231.323 179.259 222.706C166.617 214.088 129.207 153.51 129.207 153.51Z" fill="#18181B"/>
<path d="M181.426 223.634C180.6 223.634 179.826 223.376 179.104 222.912C166.565 214.346 129.362 154.284 129 153.665L128.949 153.562L129 153.458C129.207 152.942 133.593 141.281 139.785 140.662C145.874 140.042 209.754 138.752 215.43 146.905C217.907 150.517 213.676 166.565 208.413 180.91C203.201 195.048 194.945 212.85 187.566 220.28C185.244 222.499 183.18 223.634 181.426 223.634ZM129.516 153.51C131.322 156.4 167.236 214.14 179.414 222.499C181.426 223.892 184.006 223.015 187.154 219.868C200.828 206.142 219.455 153.613 214.966 147.163C209.548 139.372 145.616 140.558 139.785 141.126C134.264 141.694 129.981 152.272 129.516 153.51Z" fill="#18181B"/>
<path d="M41.6414 144.119C41.6414 144.119 34.9334 148.092 34.469 149.898C34.0046 151.704 126.369 213.16 126.369 213.16L181.787 230.497C181.787 230.497 191.23 233.954 201.395 215.843C211.56 197.731 224.718 160.786 223.996 153.716L223.325 146.647C223.325 146.647 207.123 204.749 196.648 216.256C186.173 227.762 180.445 228.743 172.344 212.54C164.243 196.338 142.623 152.426 135.192 149.021C127.762 145.615 41.6414 144.119 41.6414 144.119Z" fill="white"/>
<path d="M40.5059 144.067C38.3387 145.254 36.3263 146.699 34.4687 148.35C33.8495 148.969 32.8175 149.743 33.5399 150.517C34.8815 151.962 36.6875 153.046 38.2355 154.181C45.4595 159.496 52.8383 164.501 60.2171 169.609C69.9695 176.266 79.7219 182.922 89.5259 189.475C97.9883 195.151 106.451 200.827 114.913 206.503C117.493 208.206 120.073 209.96 122.653 211.663C123.53 212.231 124.408 213.005 125.388 213.418C126.059 213.676 126.781 213.882 127.452 214.088L132.302 215.585L147.112 220.229L176.988 229.568C178.381 230.033 179.774 230.549 181.219 230.858C185.192 231.736 189.578 230.033 192.778 227.711C199.228 222.964 203.046 215.327 206.452 208.258C209.96 200.982 213.108 193.448 215.998 185.863C218.681 178.897 221.158 171.828 223.17 164.604C223.892 162.127 224.512 159.599 224.976 157.07C225.131 156.193 225.234 155.316 225.286 154.387C225.286 152.891 225.182 151.446 224.976 150.001L224.615 146.286C224.563 145.77 222.241 146.131 222.086 146.596C220.538 152.168 218.836 157.69 217.133 163.211C213.779 174.047 210.218 184.831 206.039 195.358C204.233 200.105 202.169 204.749 199.847 209.29C198.97 210.992 197.989 212.592 196.957 214.192C195.461 216.256 193.706 218.113 191.797 219.816C189.991 221.467 187.618 223.686 185.244 224.15C183.335 224.512 181.219 223.015 179.826 221.622C177.143 218.939 175.285 215.482 173.582 212.128C172.55 210.064 171.518 208 170.486 205.987C164.914 194.893 159.289 183.799 153.252 172.912C150.414 167.803 147.524 162.746 144.325 157.896C142.364 154.903 140.249 151.446 137.359 149.227C135.863 148.04 133.799 147.834 131.941 147.576C128.587 147.06 125.233 146.802 121.828 146.544C111.92 145.77 102.013 145.357 92.0543 144.996C81.7343 144.583 71.4143 144.274 61.0943 144.016C55.0571 143.861 49.0199 143.706 42.9827 143.603H42.1055C41.7443 143.706 40.7639 143.706 40.5059 144.067C40.1963 144.48 40.6607 144.532 41.0219 144.532C45.3563 144.583 49.7423 144.686 54.0767 144.79C63.9323 144.996 73.7879 145.306 83.5919 145.615C94.0151 145.976 104.438 146.389 114.862 147.06C118.835 147.318 122.808 147.576 126.781 148.04C129.103 148.298 131.477 148.453 133.541 149.124C134.418 149.485 135.244 150.001 135.863 150.724C137.101 152.014 138.236 153.355 139.268 154.8C142.364 159.186 145.254 163.727 147.886 168.422C154.284 179.568 160.166 191.023 165.894 202.478C168.422 207.535 170.744 212.85 173.737 217.649C175.285 220.126 177.143 222.757 179.774 224.15C181.942 225.286 184.418 225.286 186.689 224.615C189.424 223.789 191.746 221.983 193.81 220.074C195.822 218.32 197.628 216.359 199.228 214.243C201.704 210.786 203.51 206.864 205.213 202.994C209.857 192.468 213.572 181.58 217.133 170.641C219.61 163.004 221.932 155.368 224.15 147.628C224.254 147.215 224.357 146.854 224.46 146.441L221.932 146.75C222.293 150.362 222.912 153.974 222.293 157.586C221.261 163.572 219.248 169.454 217.288 175.182C214.708 182.767 211.87 190.198 208.722 197.576C205.729 204.646 202.582 211.818 198.505 218.371C196.338 221.88 193.706 225.286 190.352 227.711C189.32 228.485 188.185 229.104 186.998 229.62C186.586 229.775 186.173 229.93 185.76 230.033L185.502 230.084C185.141 230.188 185.76 230.033 185.399 230.084L185.089 230.136C184.728 230.188 185.141 230.136 184.934 230.136L184.47 230.188C184.16 230.188 184.728 230.188 184.418 230.188H184.16C184.057 230.188 183.593 230.188 183.902 230.188L183.49 230.136L183.18 230.084C182.922 230.033 183.335 230.136 183.128 230.084L182.767 229.981C182.354 229.878 181.993 229.723 181.58 229.62L155.522 221.467L129 213.263L127.865 212.902C127.762 212.85 127.297 212.644 127.607 212.85C127.297 212.695 127.039 212.489 126.781 212.282L121.157 208.516C113.52 203.407 105.935 198.35 98.2979 193.242C88.6487 186.74 78.9995 180.239 69.3503 173.686C61.1459 168.113 52.9931 162.54 44.8919 156.761C42.4667 155.058 40.0415 153.304 37.7195 151.498C37.1003 151.033 36.5327 150.569 36.0167 150.053C35.9651 150.001 35.8619 149.898 35.8103 149.846C35.7071 149.692 35.7587 149.846 35.7587 149.743C35.7071 149.176 36.6875 148.402 37.1003 148.04C38.8547 146.544 40.7639 145.254 42.7247 144.119C43.2407 143.809 42.3635 143.706 42.2087 143.706C41.5895 143.654 41.0219 143.809 40.5059 144.067Z" fill="#18181B"/>
<path d="M72.3434 214.966C72.3434 214.966 29.1026 155.213 34.469 149.846C39.8354 144.48 122.499 146.647 135.347 156.245C148.195 165.842 162.024 220.796 181.787 230.446C181.735 230.446 76.0586 220.126 72.3434 214.966Z" fill="white"/>
<path d="M73.5301 214.501C72.7561 213.418 71.9821 212.334 71.2081 211.25C69.1957 208.412 67.1833 205.574 65.1709 202.685C62.4361 198.763 59.7529 194.842 57.1213 190.868C54.2317 186.534 51.3421 182.096 48.5557 177.71C45.9757 173.582 43.3957 169.351 41.0221 165.068C39.1645 161.869 37.5649 158.515 36.1717 155.058C35.7073 153.923 35.3977 152.788 35.2429 151.601C35.0881 150.93 35.1913 150.208 35.5525 149.588C35.6557 149.382 35.5525 149.537 35.7589 149.382C35.8621 149.279 35.6041 149.485 35.8105 149.382C35.5525 149.537 36.0169 149.279 35.8105 149.382C35.3977 149.64 36.0685 149.279 35.5525 149.485C35.7073 149.434 35.8105 149.382 35.5525 149.485C35.6557 149.485 35.7589 149.434 35.8621 149.382C35.5009 149.485 35.8105 149.382 35.9653 149.33C36.0685 149.33 36.1201 149.279 36.2233 149.279L36.5329 149.227L37.3585 149.021C37.9777 148.918 38.4937 148.814 39.2677 148.711C42.9829 148.195 46.6981 147.886 50.4133 147.782C55.3669 147.576 60.3205 147.524 65.3257 147.576C71.0017 147.628 76.6261 147.782 82.3021 148.092C88.0297 148.35 93.7057 148.763 99.4333 149.33C104.645 149.795 109.857 150.414 115.017 151.24C119.196 151.859 123.324 152.736 127.401 153.871C130.032 154.645 132.819 155.574 134.883 157.38C137.875 160.012 139.991 163.675 141.9 167.081C144.635 171.983 147.009 177.091 149.382 182.148C152.014 187.876 154.594 193.603 157.38 199.279C160.012 204.8 162.901 210.218 166.101 215.43C168.835 219.713 171.88 224.047 175.75 227.453C177.246 228.794 178.897 229.93 180.703 230.858L182.974 229.826L180.187 229.568L172.499 228.794C168.681 228.382 164.862 228.02 161.095 227.608C156.451 227.092 151.756 226.576 147.112 226.06C141.952 225.492 136.843 224.873 131.735 224.305C126.523 223.686 121.312 223.067 116.1 222.344C111.198 221.725 106.245 221.054 101.343 220.332C97.1113 219.713 92.8801 219.094 88.6489 218.32C85.5013 217.752 82.3021 217.184 79.2061 216.41C77.5549 215.998 75.5425 215.636 74.1493 214.708C73.8397 214.759 73.6849 214.656 73.5301 214.501C73.2721 214.088 71.1049 215.378 71.1565 215.43C71.5177 215.791 71.9305 216.101 72.4465 216.256C73.2721 216.617 74.1493 216.875 74.9749 217.133C77.7613 217.907 80.5993 218.474 83.4373 218.99C87.4105 219.713 91.3837 220.384 95.4085 220.951C100.207 221.674 105.006 222.344 109.805 222.964C114.965 223.634 120.125 224.305 125.337 224.924C130.548 225.544 135.76 226.163 140.971 226.73C145.77 227.298 150.621 227.814 155.419 228.33C159.496 228.794 163.521 229.207 167.597 229.62C170.538 229.93 173.428 230.239 176.369 230.497C177.762 230.652 179.104 230.807 180.497 230.91H180.703C181.271 230.858 181.787 230.704 182.251 230.446C182.355 230.394 183.232 229.981 182.974 229.878C178.794 227.814 175.543 224.254 172.757 220.642C169.197 215.998 166.307 210.941 163.572 205.781C160.579 200.105 157.896 194.326 155.213 188.495C152.685 182.974 150.156 177.401 147.473 171.931C145.357 167.648 143.087 163.314 140.249 159.496C139.269 158.102 138.082 156.864 136.74 155.78C135.76 155.058 134.676 154.439 133.489 154.026C130.084 152.684 126.575 151.704 122.963 151.085C118.113 150.104 113.211 149.434 108.309 148.866C102.684 148.195 97.0597 147.731 91.4353 147.37C85.6561 147.008 79.8253 146.75 73.9945 146.596C68.6281 146.441 63.3133 146.441 57.9985 146.544C53.6641 146.647 49.3297 146.802 44.9953 147.215C42.1057 147.473 39.1645 147.782 36.3781 148.763C35.3977 149.124 34.1077 149.537 33.3337 150.311C32.9209 150.878 32.7661 151.601 32.8693 152.272C33.1273 155.006 34.4689 157.69 35.6557 160.115C37.5649 164.088 39.7837 167.906 42.0025 171.725C44.6857 176.214 47.4205 180.6 50.2585 184.934C53.0965 189.269 55.9861 193.603 58.8757 197.886C61.3009 201.395 63.7261 204.904 66.1513 208.412C67.5961 210.476 69.0925 212.54 70.5373 214.604L71.1049 215.43C71.4145 215.843 73.6333 214.604 73.5301 214.501Z" fill="#18181B"/>
<path d="M77.6064 213.934L75.8521 211.405L75.9037 211.354L77.6064 213.934Z" fill="#18181B"/>
<path d="M78.2256 213.779L76.6776 211.56L76.4712 211.25L76.2132 211.766H76.2648L75.336 211.56L76.8324 213.83L77.0388 214.14C77.2452 214.398 77.5548 214.501 77.8644 214.346C78.0708 214.295 78.432 214.037 78.2256 213.779L76.7292 211.508L76.5228 211.199C76.2648 210.889 75.852 210.838 75.5424 211.044L75.4908 211.096C75.336 211.199 75.078 211.405 75.2328 211.612L76.7808 213.83L76.9872 214.14C77.1936 214.398 77.5032 214.501 77.8128 214.346C78.0708 214.295 78.432 214.037 78.2256 213.779Z" fill="#18181B"/>
<path d="M74.0977 208.877L72.3433 206.297L72.4981 206.194L74.2009 208.774L74.0977 208.877Z" fill="#18181B"/>
<path d="M74.3557 208.67L72.8077 206.452L72.6013 206.142L72.7561 206.813L72.9109 206.71L72.1885 206.245L73.6849 208.516L73.8913 208.825L73.8397 208.258L73.7365 208.309C73.6333 208.361 73.6849 208.516 73.6849 208.567C73.7365 208.722 73.7881 208.877 73.8913 208.98C73.9945 209.135 74.3041 209.444 74.5105 209.29L74.6137 209.238C74.7685 209.135 74.6137 208.774 74.5621 208.67L73.0657 206.4L72.8593 206.09C72.7561 205.936 72.3949 205.42 72.1369 205.626L72.0337 205.729C71.9305 205.781 71.9821 205.936 71.9821 205.987C72.0337 206.142 72.0853 206.297 72.1885 206.4L73.7365 208.619L73.9429 208.928C74.0461 209.083 74.3557 209.393 74.5621 209.238C74.7685 209.083 74.4589 208.774 74.3557 208.67Z" fill="#18181B"/>
<path d="M70.6406 203.717L68.8862 201.188L69.0926 201.034L70.7954 203.614L70.6406 203.717Z" fill="#18181B"/>
<path d="M71.1048 203.82L69.5568 201.601L69.3504 201.292L69.2988 201.601L69.5052 201.446L68.5248 200.93L70.0212 203.201L70.2276 203.51L70.2792 203.201L70.176 203.304C69.9696 203.459 70.2276 203.717 70.3308 203.872C70.434 203.975 70.5888 204.078 70.7436 204.13C70.8468 204.181 71.0016 204.233 71.1048 204.13L71.2596 204.026C71.3628 203.923 71.3628 203.82 71.2596 203.717L69.7632 201.446L69.5568 201.137C69.4536 200.982 69.2988 200.879 69.0924 200.776C68.9892 200.724 68.7312 200.621 68.628 200.672L68.4216 200.827C68.3184 200.93 68.3184 201.034 68.4216 201.137L69.9696 203.356L70.176 203.665C70.3308 203.923 70.6404 204.13 70.8984 204.181C71.0016 204.181 71.1048 204.181 71.1564 204.13C71.2596 204.026 71.208 203.872 71.1048 203.82Z" fill="#18181B"/>
<path d="M67.1315 198.608L65.4287 196.028L65.7383 195.822L67.3895 198.454L67.1315 198.608Z" fill="#18181B"/>
<path d="M67.4412 198.763L65.9448 196.544L65.7384 196.235L65.8416 196.544L66.1512 196.338L65.3772 195.719L66.8736 197.989L67.08 198.299L66.9768 197.989L66.7188 198.144C66.6672 198.196 66.7704 198.35 66.7704 198.35C66.822 198.505 66.9252 198.608 67.0284 198.712C67.1316 198.815 67.2348 198.918 67.3896 199.021C67.4412 199.073 67.5444 199.124 67.596 199.073L67.854 198.918C67.9572 198.866 67.7508 198.608 67.7508 198.608L66.2544 196.338L66.048 196.028C65.9448 195.874 65.79 195.667 65.5836 195.564C65.532 195.512 65.3772 195.358 65.274 195.409L64.9644 195.616C64.8612 195.667 65.0676 195.925 65.0676 195.925L66.564 198.196L66.7704 198.505C66.8736 198.66 66.9768 198.763 67.08 198.866C67.1832 198.97 67.2864 199.021 67.3896 199.124C67.6992 199.176 67.4928 198.815 67.4412 198.763Z" fill="#18181B"/>
<path d="M63.6745 193.5L61.9717 190.92L62.3845 190.662L64.0357 193.242L63.6745 193.5Z" fill="#18181B"/>
<path d="M64.1389 193.19L62.6425 190.92L62.4361 190.61L62.3845 191.384L62.7973 191.126L61.8685 190.765L63.3133 193.036L63.5197 193.345L63.6229 192.726L63.2617 192.984C62.6425 193.397 63.5197 194.326 64.0873 193.964L64.4485 193.706C64.6549 193.552 64.7065 193.294 64.5517 193.087L63.1069 190.817L62.9005 190.507C62.7457 190.249 62.3329 189.94 61.9717 190.146L61.5589 190.404C61.2493 190.61 61.3525 190.92 61.5073 191.178L63.0037 193.448L63.2101 193.758C63.4165 194.016 63.7777 194.119 64.0357 193.964C64.3969 193.758 64.2937 193.448 64.1389 193.19Z" fill="#18181B"/>
<path d="M60.2687 188.34L58.5659 185.76L59.0303 185.45L60.6815 188.03L60.2687 188.34Z" fill="#18181B"/>
<path d="M60.888 188.185L59.3916 185.915L59.1852 185.605L59.0304 185.966L59.4948 185.657L58.4112 185.605L59.856 187.876L60.0624 188.185L60.2172 187.824L59.8044 188.134C59.6496 188.185 59.598 188.392 59.7012 188.495C59.7528 188.546 59.8044 188.598 59.856 188.65C60.1656 188.753 60.4752 188.753 60.7848 188.598L61.1976 188.288C61.3008 188.237 61.404 188.082 61.3524 187.927L59.856 185.657L59.6496 185.347C59.4432 185.038 58.824 185.089 58.566 185.296L58.1016 185.605C57.9984 185.657 57.8952 185.812 57.9468 185.966L59.4432 188.237L59.6496 188.546C59.856 188.753 60.1656 188.856 60.4752 188.753C60.63 188.598 61.0428 188.443 60.888 188.185Z" fill="#18181B"/>
<path d="M56.8634 183.18L55.1606 180.548L55.6766 180.239L57.3278 182.819L56.8634 183.18Z" fill="#18181B"/>
<path d="M57.4826 183.025L55.9862 180.755L55.7798 180.445L55.625 180.755L56.141 180.445L55.0574 180.394L56.5022 182.664L56.7086 182.974L56.8634 182.664L56.399 182.974C56.2958 183.025 56.2442 183.128 56.2442 183.232C56.2442 183.335 56.3474 183.438 56.4506 183.438C56.7602 183.541 57.0698 183.541 57.3794 183.386L57.8954 183.077C57.9986 183.025 58.1018 182.87 58.0502 182.767L56.6054 180.497L56.399 180.187C56.2958 180.032 56.0894 179.981 55.9346 179.981C55.7282 179.981 55.5218 179.981 55.3154 180.084L54.7994 180.394C54.6962 180.445 54.593 180.6 54.6446 180.703L56.141 182.974L56.3474 183.283C56.5022 183.541 56.915 183.49 57.173 183.438C57.431 183.386 57.6374 183.283 57.4826 183.025Z" fill="#18181B"/>
<path d="M53.4578 177.968L51.8066 175.337L52.3742 174.976L54.0254 177.607L53.4578 177.968Z" fill="#18181B"/>
<path d="M54.0252 178.072L52.5804 175.801L52.374 175.492V175.646L52.9416 175.285L51.8064 174.924L53.2512 177.194L53.4576 177.504V177.349L52.9416 177.71C52.7352 177.814 53.1996 178.072 53.2512 178.123C53.406 178.175 53.5608 178.278 53.7156 178.278C53.8188 178.278 53.9736 178.33 54.0252 178.278L54.5412 177.917C54.6444 177.865 54.5928 177.814 54.5412 177.762L53.148 175.44L52.9416 175.13C52.7868 174.976 52.5804 174.872 52.374 174.821C52.2192 174.769 51.9612 174.666 51.8064 174.769L51.2388 175.13C51.1356 175.182 51.1872 175.234 51.2388 175.285L52.6836 177.556L52.89 177.865C52.9932 177.968 53.0964 178.02 53.1996 178.072C53.3544 178.123 53.5092 178.226 53.664 178.226C53.8704 178.278 54.18 178.278 54.0252 178.072Z" fill="#18181B"/>
<path d="M50.1551 172.757L48.5039 170.125L49.1231 169.712L50.7227 172.344L50.1551 172.757Z" fill="#18181B"/>
<path d="M50.723 172.447L49.2782 170.125L49.0718 169.816L48.7622 170.28L49.3814 169.867L48.5042 169.97L49.949 172.292L50.1554 172.602L50.465 172.138L49.8458 172.499C49.7426 172.55 49.3814 172.86 49.5878 173.015C49.7942 173.17 50.207 172.963 50.4134 172.86L51.0326 172.499C51.1358 172.447 51.4454 172.189 51.3422 172.034L49.8974 169.712L49.691 169.403C49.5362 169.145 49.0202 169.403 48.8138 169.506L48.1946 169.867C48.0914 169.919 47.7818 170.177 47.885 170.332L49.3298 172.654L49.5362 172.963C49.691 173.17 50.0522 173.015 50.2586 172.963C50.4134 172.912 50.5166 172.808 50.6198 172.705C50.6714 172.654 50.7746 172.55 50.723 172.447Z" fill="#18181B"/>
<path d="M46.853 167.494L45.2534 164.81L45.9242 164.398L47.5238 167.081L46.853 167.494Z" fill="#18181B"/>
<path d="M47.4207 167.132L46.0275 164.81L45.8211 164.501L45.5631 165.275L46.2339 164.862L45.3567 164.759L46.7499 167.081L46.9563 167.39L47.2143 166.616L46.5435 167.029C46.2855 167.184 46.0791 167.545 46.2855 167.803C46.4919 168.061 46.8531 168.113 47.1627 167.906L47.8335 167.494C48.0915 167.39 48.1947 167.081 48.0915 166.823C48.0915 166.771 48.0399 166.771 48.0399 166.72L46.6467 164.398L46.4403 164.088C46.2339 163.83 45.8727 163.778 45.5631 163.985L44.8923 164.398C44.6343 164.552 44.5311 164.862 44.6343 165.12C44.6343 165.12 44.6343 165.12 44.6343 165.172L46.0275 167.494L46.2339 167.803C46.4403 168.061 46.8015 168.113 47.1111 167.906C47.4723 167.803 47.5755 167.442 47.4207 167.132C47.4207 167.184 47.4207 167.184 47.4207 167.132Z" fill="#18181B"/>
<path d="M43.7052 162.127L42.1572 159.444L42.9312 159.031L44.376 161.766L43.7052 162.127Z" fill="#18181B"/>
<path d="M44.273 162.282L42.9314 159.96L42.725 159.65V159.702L43.4474 159.289L42.3122 158.928L43.6022 161.302L43.8086 161.663V161.611L43.0862 162.024C42.9314 162.127 43.3958 162.334 43.4474 162.334C43.6022 162.385 43.757 162.437 43.9118 162.488C44.015 162.54 44.1182 162.54 44.2214 162.488L44.9438 162.076C44.9954 162.076 44.9954 162.024 44.9438 162.024L43.6538 159.65L43.4474 159.289C43.3442 159.134 43.0346 159.031 42.8798 158.98C42.725 158.928 42.6734 158.928 42.5702 158.876C42.467 158.876 42.3638 158.876 42.2606 158.876L41.5382 159.289C41.4866 159.289 41.4866 159.341 41.5382 159.341L42.8798 161.714L43.0862 162.024C43.1378 162.127 43.241 162.179 43.3442 162.179C43.499 162.23 43.6538 162.282 43.8086 162.334C43.8602 162.334 44.3762 162.437 44.273 162.282Z" fill="#18181B"/>
<path d="M40.7127 156.658C40.5063 156.193 40.2999 155.729 40.0935 155.213C39.9903 154.955 39.8871 154.697 39.8355 154.439C39.7323 154.129 39.6807 153.871 39.6807 153.562L40.5579 153.613C40.5579 153.82 40.6095 154.026 40.6611 154.232C40.7127 154.49 40.8159 154.697 40.9191 154.955C41.0739 155.419 41.3319 155.884 41.5383 156.348L40.7127 156.658Z" fill="#18181B"/>
<path d="M41.3318 156.451C41.0738 155.935 40.8674 155.419 40.661 154.852C40.5578 154.594 40.5062 154.336 40.403 154.078L40.3514 153.923C40.3514 153.923 40.2998 153.768 40.3514 153.871C40.3514 153.716 40.2998 153.613 40.2998 153.458L39.5258 154.078L40.403 154.129L39.9386 153.665C39.9902 154.129 40.0934 154.645 40.2998 155.058C40.5062 155.574 40.7126 156.038 40.919 156.503L41.3318 155.78L40.5578 156.142C40.2998 156.245 39.9902 156.554 40.145 156.864C40.2998 157.174 40.661 157.277 40.919 157.122L41.693 156.761C41.951 156.658 42.2606 156.348 42.1058 156.038C41.8994 155.574 41.693 155.11 41.4866 154.645C41.3834 154.439 41.3318 154.232 41.2802 154.026C41.2286 153.923 41.2286 153.82 41.177 153.716C41.177 153.82 41.177 153.665 41.177 153.665C41.177 153.613 41.177 153.562 41.177 153.51C41.1254 153.252 40.919 153.046 40.661 153.046H39.7838C39.4226 152.994 39.0614 153.252 39.0098 153.665C39.0614 154.232 39.1646 154.748 39.371 155.264C39.5774 155.832 39.8354 156.348 40.0934 156.916C40.2482 157.174 40.6094 157.328 40.8674 157.174C41.177 157.07 41.4866 156.761 41.3318 156.451Z" fill="#18181B"/>
<path d="M42.8281 152.168L45.9241 151.859L45.9757 152.736L42.9313 153.046L42.8281 152.168Z" fill="#18181B"/>
<path d="M42.4154 152.375L45.1502 152.117L45.563 152.065L45.3566 152.014L45.4082 152.942L46.4402 152.53L43.757 152.788L43.3442 152.839L43.5506 152.891L43.4474 152.014C43.4474 151.859 42.8798 152.065 42.7766 152.065C42.6218 152.117 42.467 152.168 42.3638 152.22C42.3122 152.272 42.209 152.323 42.209 152.375L42.3122 153.252C42.3122 153.304 42.5186 153.304 42.5186 153.304L45.2018 153.046L45.6146 152.994C45.8726 152.942 46.079 152.891 46.2854 152.788C46.3886 152.736 46.6466 152.684 46.6466 152.53L46.595 151.601C46.595 151.549 46.3886 151.549 46.3886 151.549L43.6538 151.807L43.241 151.859C42.9314 151.91 42.6218 151.962 42.3638 152.117C42.3122 152.117 42.209 152.22 42.209 152.272C42.209 152.323 42.3638 152.375 42.4154 152.375Z" fill="#18181B"/>
<path d="M49.02 151.704L52.116 151.601L52.1676 152.53L49.0716 152.633L49.02 151.704Z" fill="#18181B"/>
<path d="M49.0199 152.014L51.7547 151.91H52.1159L51.4967 151.549V152.478L52.1675 152.168L49.4843 152.22H49.0199L49.6391 152.581V151.652C49.6391 151.394 49.2263 151.291 49.0199 151.291C48.8135 151.291 48.3491 151.343 48.3491 151.601L48.4007 152.53C48.4007 152.788 48.8651 152.891 49.0199 152.891L51.7031 152.839H52.1159C52.3223 152.839 52.7867 152.788 52.7867 152.53V151.601C52.7867 151.343 52.3223 151.24 52.1675 151.24L49.4327 151.343H49.0715C48.8651 151.343 48.4523 151.394 48.4007 151.652C48.3491 151.91 48.8135 152.014 49.0199 152.014Z" fill="#18181B"/>
<path d="M55.2119 151.549H58.3079V152.478H55.2119V151.549Z" fill="#18181B"/>
<path d="M55.3155 152.117H57.9987H58.4115L57.6891 151.446V152.375L58.2567 151.91H55.1607L55.8831 152.426V151.498C55.8315 151.343 55.7799 151.188 55.6251 151.136C55.4703 151.033 55.3155 150.982 55.1607 151.033C54.8511 151.033 54.5931 151.343 54.5931 151.652V152.581C54.5931 152.736 54.6963 152.891 54.8511 152.942C55.0059 153.046 55.1607 153.097 55.3155 153.046H58.4115C58.6695 153.046 58.9275 152.839 58.9791 152.581V151.652C58.9791 151.291 58.7211 150.982 58.3599 150.982C58.3083 150.982 58.3083 150.982 58.2567 150.982H55.5219H55.1091C54.7995 150.982 54.5415 151.24 54.5415 151.549V151.601C54.6963 151.962 55.0059 152.168 55.3155 152.117Z" fill="#18181B"/>
<path d="M61.4043 151.549L64.5519 151.601L64.5003 152.53L61.4043 152.478V151.549Z" fill="#18181B"/>
<path d="M61.7139 152.014L64.4487 152.065H64.8615L63.9843 151.394V152.375L64.2939 152.117L61.6107 152.065H61.2495L62.1267 152.736V151.756C62.0751 151.446 61.8687 151.188 61.5591 151.136C61.3527 151.085 60.9399 151.085 60.9399 151.394V152.323C60.9399 152.788 61.4559 152.994 61.8171 152.994L64.5003 153.046H64.9131C65.0679 153.046 65.2227 152.942 65.2227 152.788V151.807C65.2227 151.394 64.7067 151.136 64.3455 151.136L61.6107 151.085H61.2495C61.0431 151.085 60.9399 151.24 60.9399 151.394C60.9399 151.446 60.9399 151.549 60.9915 151.601C61.0431 151.859 61.3527 152.014 61.7139 152.014Z" fill="#18181B"/>
<path d="M67.6478 151.652L70.7438 151.704L70.6922 152.736L67.5962 152.633L67.6478 151.652Z" fill="#18181B"/>
<path d="M67.5959 151.962L70.3307 152.014H70.7435L70.1243 151.652L70.0727 152.633L70.7435 152.323L68.0603 152.272H67.5959L68.2151 152.633V151.652C68.2151 151.394 67.8023 151.291 67.5959 151.291C67.3895 151.291 66.9251 151.343 66.9251 151.601L66.8735 152.581C66.8735 152.839 67.3379 152.942 67.4927 152.942L70.1759 152.994H70.5887C70.7951 152.994 71.2595 152.942 71.2595 152.684L71.3111 151.704C71.3111 151.446 70.8467 151.343 70.6919 151.343L68.0087 151.291H67.5959C67.3895 151.291 66.9767 151.343 66.9251 151.601C66.8735 151.859 67.4411 151.962 67.5959 151.962Z" fill="#18181B"/>
<path d="M73.8397 151.807L76.9357 151.962L76.8841 152.942L73.7881 152.839L73.8397 151.807Z" fill="#18181B"/>
<path d="M73.4787 152.272L76.1619 152.375H76.5747L76.3683 152.22L76.3167 153.2L77.2455 152.478L74.5623 152.375H74.1495L74.3559 152.581L74.4075 151.601C74.4075 151.498 74.3043 151.446 74.2011 151.394C74.0463 151.394 73.9431 151.394 73.7883 151.498C73.5303 151.601 73.3239 151.859 73.2723 152.117L73.2207 153.097C73.2207 153.2 73.3239 153.252 73.4271 153.304L76.1103 153.407H76.5231C76.9359 153.407 77.4519 153.097 77.4519 152.684L77.5035 151.704C77.5035 151.601 77.4003 151.549 77.2971 151.498L74.6139 151.394H74.2011C73.8915 151.394 73.5819 151.549 73.3755 151.807C73.2723 151.91 73.1691 152.272 73.4787 152.272Z" fill="#18181B"/>
<path d="M80.0316 152.065L83.1276 152.22L83.076 153.252L79.98 153.097L80.0316 152.065Z" fill="#18181B"/>
<path d="M80.0318 152.53L82.715 152.684H83.1278L82.5086 152.22L82.457 153.252L83.0762 152.788L80.393 152.633H79.9802L80.651 153.097L80.7026 152.065C80.7026 151.756 80.2898 151.601 80.0834 151.601C79.877 151.601 79.4642 151.756 79.4642 152.065L79.4126 153.097C79.4126 153.407 79.8254 153.562 80.0318 153.562L82.715 153.716H83.1278C83.3858 153.716 83.747 153.562 83.747 153.252L83.7986 152.22C83.7986 151.91 83.3858 151.756 83.1278 151.756L80.4446 151.601H80.0318C79.7738 151.601 79.4126 151.756 79.4126 152.065C79.4126 152.375 79.7738 152.53 80.0318 152.53Z" fill="#18181B"/>
<path d="M86.2238 152.426L89.3198 152.633L89.2166 153.613L86.1206 153.458L86.2238 152.426Z" fill="#18181B"/>
<path d="M86.5847 152.684L89.2679 152.891H89.6807L88.7003 152.375L88.6487 153.407L88.8551 153.355L86.1719 153.2H85.7591L86.7395 153.716L86.7911 152.684C86.8427 152.323 85.6043 152.014 85.6043 152.22L85.5527 153.252C85.5527 153.407 85.7591 153.51 85.8623 153.562C86.0687 153.665 86.2751 153.768 86.5331 153.768L89.2163 153.923H89.6291C89.6291 153.923 89.8355 153.923 89.8355 153.871L89.8871 152.839C89.8871 152.684 89.6807 152.581 89.5775 152.53C89.3711 152.426 89.1647 152.323 88.9067 152.323L86.2235 152.168H85.8107C85.7591 152.168 85.6043 152.168 85.6043 152.22C85.6043 152.272 85.7075 152.375 85.7075 152.426C85.9655 152.53 86.2751 152.684 86.5847 152.684Z" fill="#18181B"/>
<path d="M92.4157 152.839L95.4601 153.097L95.4085 154.078L92.3125 153.82L92.4157 152.839Z" fill="#18181B"/>
<path d="M91.8999 153.2L94.5831 153.407L94.9959 153.458L94.9443 153.407L94.8411 154.387L95.9247 153.716L93.2415 153.51L92.8287 153.458L92.8803 153.51L92.9319 152.478C92.9319 152.272 92.5191 152.53 92.4159 152.53C92.2611 152.581 92.1063 152.684 92.0031 152.788C91.9515 152.839 91.7967 152.942 91.7967 153.046L91.7451 154.078C91.7451 154.129 91.7451 154.129 91.7967 154.129L94.4799 154.336L94.8411 154.387C95.0475 154.387 95.2539 154.284 95.4087 154.181C95.5119 154.129 95.5635 154.078 95.6667 153.974C95.7183 153.923 95.8731 153.82 95.8731 153.716L95.9763 152.736C95.9763 152.684 95.9763 152.684 95.9247 152.684L93.2415 152.478L92.8287 152.426C92.5707 152.426 92.3127 152.581 92.1063 152.736C92.0031 152.788 91.8999 152.891 91.7967 152.994C91.8483 153.097 91.7967 153.2 91.8999 153.2Z" fill="#18181B"/>
<path d="M98.556 153.355L101.652 153.665L101.549 154.594L98.5044 154.336L98.556 153.355Z" fill="#18181B"/>
<path d="M98.9689 153.716L101.652 153.974L102.013 154.026L101.084 153.304L100.981 154.284L101.136 154.181L98.4529 153.923L98.0401 153.871L99.0205 154.594L99.1237 153.613C99.1237 153.562 98.9689 153.407 98.9173 153.355C98.8141 153.252 98.6593 153.149 98.5045 153.046C98.4013 152.994 98.0401 152.788 97.9885 152.994L97.8853 153.974C97.8853 154.129 98.1949 154.336 98.2465 154.387C98.4013 154.542 98.6077 154.645 98.8141 154.645L101.497 154.903L101.91 154.955C102.013 154.955 102.013 154.955 102.065 154.852L102.168 153.871C102.168 153.716 101.91 153.51 101.807 153.458C101.652 153.304 101.446 153.2 101.239 153.2L98.5561 152.942L98.1433 152.891C97.8853 152.839 98.0917 153.149 98.1949 153.252C98.4013 153.51 98.7109 153.665 98.9689 153.716Z" fill="#18181B"/>
<path d="M104.748 153.974L107.793 154.336L107.689 155.264L104.645 154.903L104.748 153.974Z" fill="#18181B"/>
<path d="M104.851 154.232L107.535 154.542L107.896 154.594L107.122 154.181L107.019 155.161L107.535 155.006L104.851 154.697L104.439 154.645L105.213 155.058L105.316 154.078C105.316 153.82 104.903 153.716 104.748 153.716C104.593 153.716 104.077 153.613 104.077 153.871L103.974 154.852C103.923 155.161 104.542 155.213 104.748 155.264L107.431 155.574L107.844 155.626C107.947 155.626 108.309 155.626 108.36 155.471L108.463 154.49C108.515 154.181 107.896 154.129 107.689 154.078L105.006 153.768L104.593 153.716C104.49 153.716 104.026 153.716 104.077 153.974C104.129 154.232 104.645 154.232 104.851 154.232Z" fill="#18181B"/>
<path d="M110.888 154.697L113.984 155.161L113.83 156.09L110.785 155.626L110.888 154.697Z" fill="#18181B"/>
<path d="M110.63 155.058L113.313 155.419L113.726 155.471L113.365 155.11L113.21 156.038L114.139 155.677L111.456 155.316L111.095 155.264L111.456 155.626L111.559 154.697C111.611 154.439 111.301 154.336 111.043 154.336C110.888 154.336 110.733 154.387 110.579 154.439C110.475 154.49 110.321 154.594 110.321 154.697L110.217 155.626C110.166 155.832 110.372 155.935 110.579 155.987L113.262 156.348L113.623 156.4C113.829 156.451 114.036 156.4 114.191 156.348C114.294 156.296 114.5 156.193 114.5 156.09L114.655 155.161C114.707 154.955 114.5 154.852 114.294 154.8L111.611 154.439L111.198 154.387C110.888 154.336 110.579 154.439 110.321 154.645C110.114 154.852 110.424 155.006 110.63 155.058Z" fill="#18181B"/>
<path d="M117.029 155.626L120.125 156.193L119.918 157.122L116.874 156.554L117.029 155.626Z" fill="#18181B"/>
<path d="M117.184 156.09L119.867 156.606L120.28 156.658L119.557 155.987L119.351 156.916L119.815 156.658L117.184 156.193L116.771 156.142L117.493 156.812L117.648 155.884C117.648 155.729 117.597 155.626 117.493 155.522C117.39 155.419 117.235 155.316 117.081 155.264C116.874 155.213 116.513 155.161 116.461 155.471L116.307 156.4C116.307 156.554 116.41 156.709 116.513 156.812C116.668 156.967 116.823 157.019 117.029 157.07L119.661 157.535L120.022 157.586C120.228 157.638 120.435 157.586 120.486 157.328L120.641 156.4C120.693 156.245 120.538 156.09 120.435 155.987C120.28 155.832 120.125 155.78 119.919 155.729L117.235 155.213L116.823 155.161C116.565 155.11 116.307 155.213 116.358 155.522C116.565 155.832 116.823 156.038 117.184 156.09Z" fill="#18181B"/>
<path d="M123.118 156.864L126.162 157.69L125.904 158.567L122.911 157.741L123.118 156.864Z" fill="#18181B"/>
<path d="M123.531 157.38L126.162 158.102L126.523 158.206L125.698 157.225L125.595 157.586C125.543 157.741 125.491 157.896 125.44 158.051C125.44 158.102 125.44 158.051 125.491 158.102H125.44L125.13 158.051L123.118 157.535L122.55 157.38L123.376 158.309L123.582 157.432C123.582 157.38 123.479 157.174 123.427 157.174C123.324 157.019 123.221 156.916 123.118 156.812C123.066 156.761 122.705 156.451 122.705 156.606L122.499 157.483C122.499 157.535 122.55 157.638 122.602 157.69C122.653 157.793 122.757 157.896 122.86 157.999C123.015 158.154 123.169 158.309 123.376 158.412L125.956 159.083L126.317 159.186H126.369L126.627 158.309C126.678 158.154 126.42 157.896 126.369 157.793C126.214 157.586 126.059 157.432 125.801 157.328L123.169 156.606L122.808 156.503C122.653 156.451 122.963 156.916 122.963 156.967C123.066 157.07 123.273 157.277 123.531 157.38Z" fill="#18181B"/>
<path d="M129.103 158.773C129.619 158.98 130.084 159.238 130.548 159.496C130.806 159.65 131.013 159.805 131.219 159.96C131.425 160.115 131.632 160.321 131.838 160.528L131.219 161.147C131.064 160.992 130.909 160.837 130.703 160.682C130.497 160.528 130.29 160.424 130.084 160.27C129.671 160.012 129.207 159.805 128.742 159.599L129.103 158.773Z" fill="#18181B"/>
<path d="M128.846 159.289C129.104 159.392 129.31 159.496 129.568 159.65L129.929 159.857C129.826 159.805 129.929 159.857 129.981 159.908L130.136 160.012C130.342 160.166 130.6 160.27 130.806 160.476C130.91 160.579 131.013 160.631 131.116 160.734C131.219 160.837 131.064 160.631 131.168 160.786L131.322 160.94V160.218L130.703 160.837L131.735 160.889C130.961 160.115 130.032 159.547 129.052 159.134L129.413 159.908L129.774 159.083C129.878 158.773 129.723 158.464 129.465 158.309C129.155 158.154 128.794 158.309 128.639 158.567L128.278 159.392C128.175 159.702 128.33 160.012 128.588 160.166C128.794 160.27 129.052 160.373 129.258 160.476L129.568 160.631L129.62 160.682L129.774 160.786C129.981 160.889 130.136 161.044 130.342 161.147L130.6 161.353L130.703 161.405C130.652 161.353 130.652 161.353 130.703 161.405L130.858 161.56C131.116 161.869 131.529 161.869 131.838 161.611L131.89 161.56L132.509 160.94C132.664 160.734 132.664 160.424 132.509 160.218C131.632 159.392 130.652 158.722 129.516 158.257C129.207 158.102 128.846 158.257 128.691 158.515C128.433 158.825 128.588 159.134 128.846 159.289Z" fill="#18181B"/>
<path d="M133.799 163.004L135.502 165.636L134.779 166.049L133.077 163.52L133.799 163.004Z" fill="#18181B"/>
<path d="M133.541 163.159L135.037 165.43L135.243 165.739L135.192 165.017L134.469 165.481L135.037 165.894L133.541 163.624L133.334 163.314L133.386 164.036L134.108 163.52C134.315 163.366 134.108 163.004 134.057 162.798C134.005 162.643 133.902 162.54 133.747 162.437C133.696 162.385 133.541 162.334 133.489 162.385L132.767 162.901C132.56 163.056 132.767 163.469 132.818 163.624L134.315 165.894L134.521 166.204C134.624 166.358 134.882 166.771 135.089 166.616L135.811 166.152C136.018 166.049 135.811 165.584 135.708 165.43L134.211 163.159L134.005 162.85C133.902 162.695 133.644 162.282 133.437 162.437C133.231 162.592 133.489 163.004 133.541 163.159Z" fill="#18181B"/>
<path d="M137.05 168.319L138.546 171.054L137.824 171.415L136.327 168.732L137.05 168.319Z" fill="#18181B"/>
<path d="M137.05 168.526L138.34 170.899L138.546 171.26L138.288 170.486L137.566 170.848L137.876 171.209L136.534 168.835L136.328 168.526L136.586 169.3L137.308 168.887C137.411 168.835 137.153 168.319 137.102 168.268C137.05 168.216 136.792 167.7 136.689 167.752L135.966 168.164C135.863 168.216 136.224 168.887 136.224 168.938L137.514 171.312L137.721 171.622C137.721 171.673 137.927 172.034 138.03 171.983L138.701 171.622C138.804 171.57 138.443 170.899 138.443 170.848L137.153 168.474L136.947 168.113C136.947 168.061 136.689 167.648 136.637 167.752C136.585 167.855 136.689 168.01 136.689 168.061C136.895 168.216 136.947 168.371 137.05 168.526Z" fill="#18181B"/>
<path d="M139.991 173.789L141.384 176.575L140.714 176.885L139.32 174.15L139.991 173.789Z" fill="#18181B"/>
<path d="M139.527 173.737L140.765 176.162L140.92 176.524L140.972 176.059L140.301 176.369L141.075 176.936L139.836 174.511L139.682 174.15L139.63 174.614L140.301 174.253C140.559 174.15 140.404 173.84 140.301 173.634C140.198 173.479 140.094 173.376 139.94 173.273C139.836 173.221 139.682 173.17 139.578 173.221L138.908 173.582C138.701 173.686 138.753 173.892 138.856 174.047L140.094 176.472L140.249 176.833C140.352 176.988 140.456 177.143 140.61 177.246C140.714 177.298 140.92 177.452 141.023 177.349L141.694 177.04C141.9 176.936 141.849 176.73 141.746 176.575L140.507 174.15L140.352 173.789C140.249 173.479 139.991 173.273 139.682 173.221C139.424 173.273 139.475 173.582 139.527 173.737Z" fill="#18181B"/>
<path d="M142.726 179.31L144.067 182.148L143.5 182.406L142.106 179.62L142.726 179.31Z" fill="#18181B"/>
<path d="M142.21 179.516L143.397 181.942L143.551 182.303L143.706 181.632L143.087 181.942L144.016 182.251L142.829 179.826L142.674 179.465L142.519 180.136L143.139 179.826C143.242 179.723 143.345 179.62 143.345 179.465C143.345 179.31 143.293 179.155 143.19 179.052C142.984 178.794 142.623 178.691 142.313 178.846L141.694 179.155C141.487 179.31 141.436 179.62 141.539 179.826L142.726 182.251L142.881 182.612C143.035 182.974 143.448 183.128 143.809 182.922L144.429 182.612C144.687 182.509 144.687 182.148 144.583 181.942L143.397 179.516L143.242 179.155C143.087 178.846 142.777 178.691 142.416 178.742C142.21 178.897 142.055 179.207 142.21 179.516C142.21 179.465 142.158 179.465 142.21 179.516Z" fill="#18181B"/>
<path d="M145.409 184.934L146.75 187.721L146.183 187.979L144.841 185.192L145.409 184.934Z" fill="#18181B"/>
<path d="M144.79 185.038L145.925 187.514L146.08 187.876L146.131 187.824L145.564 188.082L146.75 187.979L145.564 185.554L145.409 185.192L145.357 185.244L145.925 184.986C146.183 184.883 145.718 184.883 145.667 184.883C145.357 184.883 145.099 184.934 144.79 185.038L144.222 185.296C144.17 185.296 144.17 185.347 144.17 185.347L145.357 187.772L145.512 188.134C145.564 188.237 145.925 188.185 145.976 188.185C146.234 188.185 146.441 188.134 146.699 188.03L147.266 187.772C147.318 187.772 147.318 187.721 147.318 187.721L146.183 185.244L146.028 184.883C146.028 184.831 145.873 184.831 145.822 184.831C145.667 184.831 145.512 184.831 145.357 184.883C145.357 184.831 144.738 184.934 144.79 185.038Z" fill="#18181B"/>
<path d="M148.04 190.559L149.33 193.345L148.814 193.603L147.524 190.817L148.04 190.559Z" fill="#18181B"/>
<path d="M147.473 190.817L148.608 193.294L148.763 193.655L149.176 193.087L148.66 193.294L149.382 193.345L148.247 190.868L148.092 190.507L147.679 191.075L148.195 190.817C148.402 190.714 148.763 190.456 148.608 190.198C148.453 189.94 148.041 190.094 147.886 190.146L147.37 190.404C147.163 190.507 146.854 190.765 146.957 191.023L148.144 193.448L148.299 193.81C148.402 194.068 148.866 193.913 149.021 193.861L149.537 193.603C149.743 193.5 150.105 193.242 149.95 193.036L148.815 190.559L148.66 190.198C148.557 189.94 148.092 190.094 147.937 190.146C147.783 190.198 147.318 190.559 147.473 190.817Z" fill="#18181B"/>
<path d="M150.621 196.183L151.859 199.021L151.446 199.176L150.156 196.39L150.621 196.183Z" fill="#18181B"/>
<path d="M150.002 196.338L151.085 198.815L151.24 199.176L151.55 198.557L151.137 198.763L152.066 199.073L150.93 196.596L150.776 196.235L150.466 196.854L150.93 196.648C151.188 196.544 151.292 196.235 151.188 195.977C151.188 195.925 151.137 195.925 151.137 195.874C150.93 195.616 150.569 195.512 150.26 195.667L149.795 195.874C149.537 195.977 149.434 196.235 149.486 196.493L150.621 198.97L150.776 199.331C150.93 199.692 151.343 199.847 151.704 199.692C151.704 199.692 151.704 199.692 151.756 199.692L152.169 199.486C152.427 199.382 152.53 199.124 152.478 198.866L151.343 196.39L151.188 196.028C151.034 195.719 150.724 195.564 150.414 195.667C150.156 195.719 149.847 196.028 150.002 196.338Z" fill="#18181B"/>
<path d="M153.149 201.808L154.387 204.646L154.078 204.8L152.788 202.014L153.149 201.808Z" fill="#18181B"/>
<path d="M152.478 201.808L153.562 204.284L153.716 204.646L153.82 204.594L153.51 204.749L154.697 204.8L153.562 202.375L153.407 202.014L153.304 202.066L153.665 201.911C153.923 201.808 153.51 201.704 153.407 201.704C153.252 201.704 153.046 201.704 152.891 201.704C152.736 201.704 152.633 201.704 152.478 201.756L152.117 201.911C152.065 201.911 152.065 201.962 152.014 201.962L153.149 204.388L153.304 204.749C153.355 204.852 153.665 204.904 153.768 204.904C154.026 204.955 154.284 204.904 154.49 204.852L154.8 204.697C154.852 204.697 154.852 204.646 154.903 204.646L153.82 202.169L153.665 201.808C153.613 201.756 153.562 201.704 153.458 201.704C153.304 201.653 153.149 201.653 152.994 201.653C153.097 201.704 152.478 201.704 152.478 201.808Z" fill="#18181B"/>
<path d="M155.677 207.484L156.967 210.27L156.761 210.425L155.419 207.587L155.677 207.484Z" fill="#18181B"/>
<path d="M155.11 207.742L156.245 210.218L156.4 210.58L156.812 210.012L156.554 210.115H157.277L156.142 207.638L155.987 207.277L155.574 207.845L155.832 207.742C155.987 207.638 156.4 207.38 156.245 207.174C156.09 206.968 155.677 207.071 155.522 207.174L155.264 207.277C155.11 207.329 154.697 207.638 154.852 207.845L155.987 210.322L156.142 210.683C156.245 210.941 156.709 210.786 156.864 210.683L157.122 210.58C157.277 210.476 157.69 210.27 157.535 210.012L156.4 207.535L156.245 207.174C156.142 206.916 155.677 207.071 155.522 207.174C155.368 207.277 155.006 207.484 155.11 207.742Z" fill="#18181B"/>
<path d="M158.257 213.108L159.547 215.894L159.444 215.998L158.103 213.211L158.257 213.108Z" fill="#18181B"/>
<path d="M157.638 213.263L158.773 215.74L158.928 216.101L159.289 215.585L159.186 215.636L160.012 215.74L158.825 213.314L158.67 212.953L158.36 213.572L158.567 213.469C158.773 213.366 159.083 213.108 158.876 212.85C158.618 212.644 158.309 212.592 158.051 212.747L157.844 212.85C157.69 212.902 157.586 213.005 157.535 213.108C157.483 213.211 157.483 213.314 157.535 213.418L158.722 215.843L158.876 216.204C158.928 216.307 159.134 216.359 159.238 216.359C159.392 216.359 159.599 216.359 159.754 216.256L159.857 216.204C159.96 216.152 160.063 216.101 160.166 215.998C160.218 215.946 160.27 215.791 160.218 215.74L159.083 213.263L158.928 212.902C158.773 212.644 158.464 212.54 158.206 212.644C158.051 212.695 157.896 212.747 157.793 212.902C157.69 213.005 157.586 213.16 157.638 213.263Z" fill="#18181B"/>
<path d="M160.941 218.681L162.334 221.467L160.837 218.732L160.941 218.681Z" fill="#18181B"/>
<path d="M160.321 218.99L161.56 221.416L161.714 221.777L162.127 221.158H162.076L162.85 221.209L161.56 218.836L161.353 218.526L160.94 219.145L161.044 219.094C161.25 218.99 161.56 218.732 161.456 218.474C161.353 218.216 160.889 218.32 160.682 218.423L160.579 218.474C160.373 218.578 160.012 218.836 160.166 219.094L161.456 221.467L161.663 221.777C161.818 222.035 162.23 221.983 162.437 221.828H162.488C162.695 221.725 163.056 221.467 162.901 221.209L161.663 218.784L161.508 218.474C161.353 218.216 160.94 218.32 160.734 218.423C160.528 218.526 160.218 218.732 160.321 218.99Z" fill="#18181B"/>
<path d="M68.2156 144.738C68.2156 144.738 64.0876 145.615 66.7708 151.91C69.454 158.206 82.9732 178.742 88.546 183.335C94.1188 187.927 108.618 188.185 104.748 177.762C100.878 167.339 92.4676 154.8 91.9 151.394C91.5904 149.382 91.9 147.318 92.8804 145.512C92.8804 145.564 71.1568 142.416 68.2156 144.738Z" fill="#18181B"/>
<path d="M67.5446 143.654C65.0162 144.222 64.5518 147.266 64.9646 149.33C65.3774 151.033 66.0482 152.684 66.9254 154.232C67.6478 155.677 68.4734 157.07 69.299 158.412C73.4786 165.533 78.1742 172.396 83.3342 178.897C85.1918 181.219 87.2042 183.696 89.8358 185.244C92.7254 186.895 96.0278 187.669 99.3818 187.463C102.117 187.308 105.316 186.224 106.245 183.335C106.812 181.58 106.503 179.774 105.883 178.072C105.006 175.595 103.974 173.17 102.787 170.848C100.517 166.204 97.9886 161.766 95.5634 157.225C94.7378 155.78 94.0154 154.336 93.3962 152.788C93.293 152.53 93.1898 152.272 93.1382 152.014C93.0866 151.756 93.1898 152.22 93.1382 152.065C93.1382 152.014 93.0866 151.962 93.0866 151.91C93.035 151.652 92.9834 151.394 92.9834 151.136C92.8802 150.001 92.9834 148.814 93.3962 147.731C93.551 147.266 93.7574 146.802 94.0154 146.338C94.4282 145.667 93.4478 144.583 92.8286 144.48C90.2486 144.119 87.6686 143.809 85.037 143.5C80.7026 143.035 76.3166 142.622 71.9822 142.777C70.5374 142.829 68.6282 142.829 67.4414 143.758C66.5642 144.428 68.267 146.338 69.1958 145.667C69.4022 145.512 69.0926 145.718 69.299 145.615C69.4022 145.564 69.5054 145.512 69.6086 145.46C69.8666 145.357 70.1762 145.254 70.4858 145.202C70.589 145.202 70.6922 145.151 70.7954 145.151L71.3114 145.099C71.7242 145.048 72.137 145.048 72.5498 144.996C74.5622 144.893 76.6262 144.944 78.6386 145.099C82.715 145.357 86.7398 145.77 90.7646 146.286C91.0742 146.338 90.5582 146.286 90.8678 146.286L91.1258 146.338L91.6418 146.389L92.4674 146.492L93.1898 146.596L92.003 144.738C91.1774 146.183 90.8162 147.834 90.8678 149.485C90.9194 150.982 91.2806 152.478 92.003 153.871C93.809 157.793 96.0278 161.508 98.0918 165.326C99.3302 167.648 100.517 169.97 101.601 172.292C102.117 173.428 102.633 174.614 103.149 175.75C103.613 176.73 103.974 177.71 104.232 178.742C104.593 180.136 104.593 181.477 103.871 182.716C103.2 183.696 102.22 184.367 101.136 184.728C98.3498 185.657 95.1506 185.296 92.4158 184.315C91.1258 183.902 89.9906 183.232 88.9586 182.406L88.7006 182.2C88.4942 181.993 88.8554 182.354 88.7522 182.251C88.7006 182.2 88.649 182.148 88.5974 182.096C88.391 181.89 88.133 181.632 87.9266 181.426C87.4622 180.91 86.9978 180.394 86.5334 179.878C84.1598 177.091 81.941 174.202 79.877 171.209C77.5034 167.855 75.1814 164.398 73.0142 160.889C72.0854 159.341 71.1566 157.844 70.2278 156.245C69.8666 155.574 69.4538 154.903 69.0926 154.232L68.8862 153.82L68.783 153.613C68.6282 153.355 68.525 153.046 68.3702 152.788C67.6478 151.291 66.9254 149.64 67.1834 147.937C67.2866 147.421 67.493 146.957 67.8026 146.544C67.9574 146.389 68.1122 146.234 68.267 146.131C68.3186 146.08 68.6282 145.925 68.3702 146.028L68.5766 145.925C68.7314 145.873 68.8862 145.822 69.041 145.77C69.6602 145.615 69.4022 144.738 69.1958 144.428C68.6798 143.861 68.1122 143.551 67.5446 143.654Z" fill="#18181B"/>
<path d="M87.9263 164.036C86.4815 164.449 85.2431 165.43 84.5723 166.823C84.1079 168.01 84.1079 169.3 84.5207 170.538C85.1915 172.86 86.5331 174.924 88.2875 176.575C90.3515 178.433 94.0151 179.878 96.4403 177.71C98.5559 175.801 97.6787 172.499 96.5951 170.28C94.9955 166.874 91.8995 164.191 88.0295 164.036C87.5651 164.036 87.9779 164.914 88.0811 165.068C88.2875 165.43 88.7519 166.204 89.2163 166.204C91.5899 166.307 94.0151 167.339 95.2019 169.506C96.1307 171.209 96.6983 173.737 95.2535 175.285C93.4991 177.194 90.5063 176.678 88.5971 175.337C87.7715 174.718 87.1007 173.892 86.5847 173.015C86.5331 172.912 86.4815 172.808 86.4299 172.705C86.3783 172.602 86.3267 172.55 86.3267 172.499C86.3267 172.447 86.4815 172.912 86.4299 172.654C86.3783 172.396 86.1203 171.983 86.1203 171.828C85.7591 170.848 85.8107 169.712 86.1719 168.732C86.7395 167.442 88.0295 166.616 89.3711 166.152C89.7839 166.049 88.6487 163.83 87.9263 164.036Z" fill="#FF9000"/>
<path d="M107.553 103.651C115.087 91.7596 108.784 74.2559 93.4742 64.5556C78.1643 54.8552 59.6452 56.6317 52.1107 68.5233C44.5762 80.415 50.8794 97.9187 66.1893 107.619C81.4992 117.319 100.018 115.543 107.553 103.651Z" fill="#FF9000"/>
<path d="M105.161 105.986C97.4724 115.12 83.2824 114.294 73.2204 110.011C62.0232 105.212 51.9096 94.8408 50.31 82.3536C49.6392 77.2452 50.6196 71.9304 53.5092 67.6476C56.502 63.21 61.0428 60.6816 66.2028 59.6496C72.24 58.4112 78.5868 59.2368 84.366 61.3008C90.7128 63.5712 96.3888 67.3896 100.93 72.3432C108.205 80.3412 112.849 92.7768 107.276 102.942C106.606 104.026 105.935 105.058 105.161 105.986C104.851 106.348 105.006 106.554 105.47 106.451C106.09 106.296 106.606 105.935 107.018 105.47C110.476 101.239 112.23 95.8728 111.869 90.4032C111.508 84.4692 109.134 78.7416 105.625 73.9944C101.446 68.4216 95.976 63.984 89.6808 61.0944C83.7468 58.3596 77.0904 56.9664 70.5888 57.6372C64.5516 58.308 58.566 60.7332 54.2316 65.016C50.31 68.886 48.0396 74.1492 47.8848 79.722C47.73 85.5528 49.7424 91.332 52.89 96.1824C56.6568 101.91 61.8168 106.606 67.854 109.805C73.7364 113.004 80.2896 114.655 86.9976 114.552C93.0864 114.397 99.1236 112.385 103.871 108.566C105.006 107.638 106.09 106.606 107.018 105.47C107.328 105.109 107.173 104.903 106.709 105.006C106.09 105.212 105.522 105.522 105.161 105.986Z" fill="#18181B"/>
<path d="M111.454 97.886C118.989 85.9944 112.685 68.4906 97.3756 58.7903C82.0657 49.09 63.5466 50.8664 56.0121 62.7581C48.4776 74.6497 54.7808 92.1535 70.0907 101.854C85.4006 111.554 103.92 109.778 111.454 97.886Z" fill="#FF9000"/>
<path d="M108.876 99.33C101.033 108.67 87.0491 108.928 76.4711 104.696C65.3255 100.207 55.6247 89.8872 54.1283 77.658C53.4059 72.498 54.5927 67.2864 57.4823 62.952C60.6299 58.4112 65.4803 55.4184 70.7951 54.18C83.0759 51.2388 96.5435 56.6052 104.903 65.7384C112.23 73.7364 116.616 86.172 110.991 96.2856C110.372 97.3176 109.701 98.3496 108.876 99.33C108.515 99.7428 110.579 101.239 111.043 100.723C114.449 96.492 116.151 91.1256 115.739 85.7076C115.377 79.722 112.849 74.046 109.34 69.2472C105.057 63.5712 99.4847 58.9788 93.0347 55.9344C87.0491 53.0448 80.3411 51.3936 73.6847 51.9096C67.8539 52.3224 62.1263 54.3864 57.8951 58.5144C54.0251 62.3844 51.8063 67.596 51.7547 73.0656C51.6515 78.948 53.7155 84.7272 56.8631 89.5776C60.7847 95.46 66.0479 100.31 72.2399 103.664C78.1223 106.967 84.8303 108.979 91.5899 108.928C97.4723 108.928 103.406 107.328 108.05 103.664C109.134 102.787 110.166 101.807 111.043 100.775C111.353 100.31 109.289 98.7624 108.876 99.33Z" fill="#18181B"/>
<path d="M67.9569 78.2256C74.6649 84.366 81.6825 90.1452 88.9581 95.5632C89.4741 95.976 90.7125 96.4404 90.6609 95.3052C90.6093 94.17 89.4741 93.0348 88.5969 92.4156C86.8425 91.074 85.0881 89.7324 83.3337 88.3908C82.4565 87.72 81.6309 86.9976 80.7537 86.3268L80.4441 86.1204L80.3409 86.0688L79.7733 85.6044L78.4317 84.5208C75.0777 81.7344 71.7753 78.8448 68.5245 75.9036C68.1633 75.5424 66.6669 74.4072 66.3573 75.3876C66.0477 76.368 67.3377 77.658 67.9569 78.2256Z" fill="#18181B"/>
<path d="M71.6721 79.206C71.8269 78.8964 71.9817 78.5352 72.1365 78.2256C72.1881 78.1224 72.4461 77.7096 72.2913 77.9676C72.1365 78.2256 72.4461 77.7612 72.4977 77.658C72.7557 77.3484 72.9621 77.0904 73.2717 76.8324C73.3233 76.7808 73.6845 76.5228 73.7361 76.4196C73.7361 76.4196 73.3749 76.6776 73.5813 76.5228C73.6845 76.4712 73.7877 76.368 73.8393 76.3164C74.4585 75.852 75.1293 75.4392 75.8517 75.1296C76.1613 74.9748 75.4905 75.2844 75.8001 75.1812L76.0581 75.078C76.2129 75.0264 76.4193 74.9748 76.5741 74.8716C76.9869 74.7168 77.4513 74.6136 77.8641 74.5104C78.0705 74.4588 78.2253 74.4588 78.4317 74.4072L78.7413 74.3556C78.3801 74.3556 79.1025 74.304 78.7413 74.3556C79.2057 74.3556 79.6185 74.304 80.0829 74.304C80.3409 74.304 80.5989 74.3556 80.8569 74.3556C81.1149 74.3556 80.8569 74.3556 80.8053 74.3556L81.1149 74.4072L81.4245 74.5104C81.4761 74.5104 81.7857 74.6652 81.5277 74.562C81.2697 74.4588 81.6309 74.6652 81.6825 74.6652C81.9921 74.7684 81.4245 74.4072 81.6309 74.6136C81.6825 74.6652 82.1469 75.078 81.8889 74.82C81.6309 74.562 81.8373 74.7684 81.8889 74.8716L82.0953 75.1812C82.3533 75.594 81.9921 74.7684 82.0953 75.2328L82.1469 75.4908C82.1985 75.7488 82.1469 75.1812 82.1469 75.5424C82.1469 75.6456 82.1469 75.8004 82.1469 75.9036C82.1469 75.5424 82.1469 75.9036 82.1469 76.0068C82.0953 76.2648 82.0953 76.4712 82.0437 76.7292C81.9921 76.8324 81.8373 77.4 81.9921 77.0388C81.8889 77.2968 81.7857 77.5548 81.6825 77.8128C81.4761 78.2772 81.2697 78.7416 81.0117 79.206C80.9601 79.3092 80.5989 79.8252 80.8569 79.5156C80.7021 79.722 80.5989 79.9284 80.4441 80.0832C79.7733 80.9604 79.0509 81.7344 78.2253 82.4568L82.2501 85.5012C82.3533 85.2948 82.4565 85.0884 82.5597 84.882C82.2501 85.2432 82.5597 84.9336 82.6629 84.7788C82.7661 84.624 83.5917 83.6436 83.6949 83.6952C83.7981 83.7468 83.3337 83.9532 83.5917 83.7984C83.6949 83.7468 83.7981 83.6436 83.9013 83.592C84.0561 83.4888 84.2625 83.334 84.4173 83.2308C84.5721 83.1276 84.8301 82.9728 85.0365 82.8696L85.3461 82.7148C85.3977 82.6632 85.9137 82.4568 85.5525 82.6116C85.1913 82.7664 85.8621 82.5084 85.9653 82.4568C86.2233 82.3536 86.4813 82.302 86.6877 82.2504C87.2037 82.0956 87.7197 81.9924 88.2357 81.9408C88.3389 81.9408 88.7001 81.8892 88.2357 81.9408L88.6485 81.8892C88.8549 81.8892 89.1129 81.8892 89.3193 81.8892C89.5257 81.8892 89.8353 81.8892 90.0933 81.9408H90.4029C90.5061 81.9408 91.1253 82.044 90.5577 81.9408C91.0221 82.044 91.4349 82.1472 91.8993 82.302C92.0025 82.3536 92.1573 82.4052 92.2605 82.4568C91.7961 82.2504 92.1057 82.4052 92.2089 82.4568L92.9313 82.9212C93.2409 83.1276 92.6217 82.6116 92.8797 82.8696C92.9313 82.9212 93.0345 82.9728 93.0861 83.076C93.1893 83.1792 93.2925 83.2824 93.3957 83.3856C93.0861 82.8696 93.2925 83.2308 93.3441 83.334C93.4473 83.4372 93.4989 83.5404 93.5505 83.6952C93.5505 83.6952 93.3441 83.076 93.4989 83.592C93.6021 83.85 93.7053 84.0564 93.7569 84.3144C93.8085 83.9532 93.7053 84.0048 93.7569 84.2112C93.7569 84.3144 93.8085 84.4692 93.8085 84.5724C93.8085 84.6756 93.8085 84.9852 93.8085 85.1916C93.8601 85.5012 93.8601 84.7272 93.8085 85.0368C93.8085 85.14 93.7569 85.2432 93.7569 85.3464C93.7569 85.4496 93.7053 86.0172 93.6021 86.0688C93.4989 86.1204 93.7569 85.6044 93.6537 85.8624C93.6021 85.9656 93.6021 86.0688 93.5505 86.172C93.4989 86.3268 93.3957 86.5332 93.3441 86.688C93.2925 86.8944 93.1377 87.1008 93.0345 87.2556C93.0861 87.2556 93.3441 86.7912 93.0861 87.1524C92.9829 87.2556 92.9313 87.3588 92.8281 87.462C92.6733 87.6684 92.5185 87.8232 92.3121 88.0296C92.2605 88.0812 92.2089 88.1328 92.1057 88.1844C91.8477 88.4424 92.0541 88.3392 92.1573 88.1844C92.0025 88.494 91.1769 88.8552 90.8673 89.0616L90.5577 89.2164C90.1449 89.4228 90.8157 89.1132 90.5577 89.2164C90.2997 89.3196 90.0417 89.4228 89.7837 89.4744C89.2161 89.6292 88.7001 89.7324 88.1325 89.8356C86.8425 89.9904 86.2749 91.7964 86.6877 92.88C87.1005 94.17 88.3905 94.944 89.7321 94.7376C94.7373 94.1184 99.1749 89.7324 98.5041 84.4176C98.1429 81.1152 95.8209 78.3804 92.6733 77.4C90.0417 76.626 87.2553 76.6776 84.6753 77.5548C81.7857 78.432 79.4121 80.3928 77.9673 83.0244C77.3997 84.108 77.9673 85.5528 78.8961 86.2752C79.8249 87.0492 81.1665 86.946 81.9921 86.1204C83.7465 84.624 85.1913 82.7148 86.0685 80.5476C87.1521 77.916 87.5649 74.82 85.7589 72.3948C83.9529 69.9696 81.2181 69.1956 78.3285 69.4536C76.0581 69.6084 73.8393 70.3308 71.8785 71.466C69.8661 72.6528 68.2665 74.5104 67.3377 76.6776C66.8217 77.9676 67.3377 79.4124 68.5245 80.1348C69.6081 80.7024 71.1561 80.496 71.6721 79.206Z" fill="#18181B"/>
<path d="M64.3968 74.304L67.854 77.1936C68.0604 77.4 68.4732 77.2968 68.7312 77.2452C69.3504 77.0904 69.918 76.884 70.434 76.5744C71.0016 76.3164 71.5176 76.0068 71.982 75.594C72.0852 75.4908 72.6528 75.0264 72.4464 74.8716L68.9892 71.982C68.7828 71.7756 68.37 71.8788 68.112 71.982C67.5444 72.1368 66.9252 72.3432 66.4092 72.6528C65.8416 72.9108 65.3256 73.2204 64.8612 73.6332C64.8096 73.6848 64.242 74.2008 64.3968 74.304Z" fill="#18181B"/>
<path d="M68.8859 70.4856C70.1759 71.3628 71.3111 72.3432 72.3947 73.4784L71.9303 73.014L72.2915 73.4268C72.4979 73.6848 72.7559 73.9428 73.0139 74.0976C73.2719 74.304 73.5815 74.4588 73.9427 74.562C74.5103 74.7684 75.1295 74.7684 75.6971 74.5104C76.2131 74.304 76.5743 73.8396 76.6259 73.3236C76.6775 72.756 76.5227 72.1884 76.1615 71.724C74.8715 70.2792 73.4267 68.9892 71.8271 67.854C71.5691 67.6476 71.2595 67.4412 70.9499 67.338C70.6403 67.1832 70.3307 67.08 69.9695 67.08C69.4019 67.0284 68.8343 67.1832 68.3699 67.5444C67.9571 67.9056 67.8023 68.4216 67.9055 68.9892C68.0603 69.6084 68.3699 70.176 68.8859 70.4856Z" fill="#18181B"/>
<path d="M89.8354 94.3764C89.9902 94.4796 90.145 94.5828 90.2998 94.7376L90.5578 94.944L90.661 95.0472L90.403 94.8408C90.7126 95.0988 91.0738 95.3052 91.3834 95.5632C92.0026 96.0792 92.6734 96.5952 93.2926 97.1112C93.499 97.266 93.7054 97.4208 93.9118 97.524C94.0666 97.6272 94.2214 97.6788 94.4278 97.6788C94.7374 97.6272 94.8406 97.3692 94.7374 97.0596C94.5826 96.5436 94.3762 96.0276 94.015 95.6148C93.6022 95.0988 93.1894 94.5828 92.6734 94.1184C91.2802 92.9316 89.8354 91.7964 88.2874 90.7644C88.081 90.6612 87.565 90.3516 87.3586 90.558C87.1522 90.7644 87.307 91.332 87.4102 91.5384C87.9778 92.6736 88.8034 93.654 89.8354 94.3764Z" fill="#18181B"/>
<path d="M92.6221 91.332L95.3053 93.396C96.0793 93.9636 97.0597 94.1184 97.9885 93.8604C98.2981 93.8088 98.6077 93.7056 98.9173 93.4992C99.4333 93.2412 99.7945 92.8284 99.9493 92.2608V91.7964C99.8977 91.4868 99.7429 91.1772 99.4849 90.9708L96.8017 88.9068C96.3373 88.5456 95.7697 88.3392 95.1505 88.3392C94.7893 88.2876 94.4281 88.3392 94.1185 88.4424C93.8089 88.494 93.4993 88.5972 93.1897 88.8036C92.6737 89.0616 92.3125 89.4744 92.1577 90.042V90.5064C92.2093 90.816 92.3641 91.1256 92.6221 91.332Z" fill="#18181B"/>
<path d="M48.0912 81.3216C49.278 81.3732 50.4648 81.3216 51.6 81.1152C52.1676 80.9604 52.7352 80.6508 53.148 80.238C53.3028 80.0832 53.5092 79.9284 53.5092 79.722C53.5092 79.5156 53.3544 79.5156 53.2512 79.5672C52.7352 79.6704 52.1676 79.722 51.6 79.7736C51.342 79.7736 51.0324 79.8252 50.7744 79.8252C50.5164 79.8252 50.31 79.8252 50.0004 79.8252C49.4328 79.8768 48.9168 80.1348 48.5556 80.496C48.3492 80.6508 48.1944 80.8572 48.0396 81.0636C48.0396 81.1152 47.9364 81.3216 48.0912 81.3216Z" fill="#18181B"/>
<path d="M51.703 88.5456C51.9094 88.4424 52.1158 88.3908 52.3222 88.2876L52.0642 88.3908C52.477 88.236 52.9414 88.1328 53.3542 88.0812L53.6638 88.0296C53.767 88.0296 53.9734 88.0296 53.6122 88.0296H53.767C54.025 88.0296 54.2314 88.0296 54.4894 88.0296C54.7474 88.0296 55.057 87.978 55.2634 87.7716C55.4182 87.5652 55.4698 87.3072 55.4182 87.1008C55.1602 86.4816 54.5926 86.1204 53.9218 86.1204C52.5802 86.0688 51.2386 86.3268 50.0002 86.8428C49.4326 87.1008 49.5874 87.7716 49.9486 88.1328C50.413 88.6488 51.0838 88.8036 51.703 88.5456Z" fill="#18181B"/>
<path d="M56.2954 92.106L55.7794 92.5188L56.0374 92.3124C55.1602 93.0348 54.2314 93.654 53.3026 94.3248C52.735 94.686 52.5802 95.46 52.9414 96.0276C53.251 96.5436 54.025 96.9564 54.5926 96.5436C55.7794 95.718 56.9662 94.8408 58.1014 93.912C58.3078 93.654 58.411 93.3444 58.411 93.0348C58.411 92.6736 58.2562 92.364 57.9982 92.106C57.7918 91.848 57.4822 91.7448 57.1726 91.6932L56.863 91.7448C56.605 91.848 56.4502 91.9512 56.2954 92.106Z" fill="#18181B"/>
<path d="M62.2294 99.9492C61.8166 100.465 61.3522 101.033 60.9394 101.497L60.6298 101.858C60.5782 101.91 60.5782 101.91 60.5266 101.962C60.4234 102.065 60.5266 101.962 60.5782 101.91L60.4234 102.116C60.1654 102.374 59.9074 102.632 59.6494 102.839C59.5462 102.942 59.3398 103.148 59.3914 103.303C59.443 103.458 59.7526 103.51 59.8558 103.51C60.1654 103.51 60.475 103.458 60.7846 103.355C61.0942 103.252 61.3522 103.097 61.6102 102.89C62.6938 101.91 63.6742 100.826 64.5514 99.6912C64.6546 99.588 64.6546 99.4332 64.5514 99.2784C64.345 99.1752 64.1386 99.1752 63.8806 99.1752C63.571 99.2268 63.2098 99.33 62.9518 99.4848C62.5906 99.588 62.3842 99.7428 62.2294 99.9492Z" fill="#18181B"/>
<path d="M68.8344 104.542C68.0604 105.522 67.3381 106.554 66.7189 107.689C66.5641 107.947 66.4608 108.205 66.5124 108.515C66.564 108.824 66.7704 109.031 67.0284 109.134C67.338 109.237 67.6476 109.289 67.9572 109.186C68.2668 109.082 68.5765 108.876 68.7829 108.618C69.4021 107.534 70.1244 106.502 70.8984 105.47C71.2596 105.058 71.1565 104.438 70.7437 104.129C70.6921 104.077 70.6405 104.026 70.5889 104.026C69.9697 103.768 69.2472 103.974 68.8344 104.542Z" fill="#18181B"/>
<path d="M76.6258 108.824C76.5742 109.805 76.3678 110.785 76.0066 111.714L76.1098 111.508L76.0066 111.766C75.9034 111.972 75.9034 112.23 76.0066 112.385C76.1614 112.643 76.4194 112.798 76.6774 112.901C76.987 113.004 77.3482 113.056 77.6578 113.004C77.8642 112.952 78.2254 112.849 78.3286 112.643C78.793 111.611 79.1026 110.424 79.1542 109.289C79.1542 109.031 79.051 108.824 78.8962 108.67C78.3802 108.257 77.7094 108.154 77.0902 108.36C76.8838 108.412 76.6258 108.566 76.6258 108.824Z" fill="#18181B"/>
<path d="M84.9851 110.114C84.6239 110.888 84.4175 111.766 84.4175 112.591C84.4175 112.849 84.5207 113.107 84.6239 113.365C84.7787 113.675 84.9851 113.933 85.1915 114.191L85.3979 114.346C85.5011 114.449 85.6559 114.5 85.7591 114.5C85.9139 114.5 86.0687 114.346 86.0171 114.191C86.0171 113.83 86.0687 113.468 86.1203 113.107L86.0687 113.314C86.1719 112.901 86.2751 112.436 86.4815 112.075C86.5331 111.869 86.5331 111.611 86.4299 111.404C86.3267 111.095 86.1203 110.785 85.9139 110.527C85.7591 110.321 85.5527 110.114 85.2947 110.011C85.2431 109.96 85.0367 109.908 84.9851 110.114Z" fill="#18181B"/>
<path d="M178.897 159.908C196.68 159.908 211.096 145.493 211.096 127.71C211.096 109.927 196.68 95.5116 178.897 95.5116C161.114 95.5116 146.699 109.927 146.699 127.71C146.699 145.493 161.114 159.908 178.897 159.908Z" fill="#FF9000"/>
<path d="M192.675 156.348C186.741 159.031 180.136 159.805 173.737 158.567C156.4 155.213 145.048 138.391 148.402 121.054C148.866 118.525 149.692 116.048 150.775 113.726C153.355 107.999 157.69 103.2 163.159 100.104C168.835 96.9564 175.389 95.718 181.839 96.492C199.383 98.6076 211.921 114.604 209.806 132.148C209.496 134.728 208.877 137.256 207.948 139.681C205.729 145.564 201.808 150.62 196.596 154.181C195.255 155.058 193.861 155.832 192.417 156.503C192.107 156.658 191.23 157.122 191.23 157.586C191.23 158.051 192.107 157.586 192.262 157.535C198.66 154.594 204.027 149.846 207.639 143.809C216.823 128.484 211.87 108.618 196.596 99.3816C193.965 97.782 191.075 96.5952 188.082 95.8212C181.477 94.1184 174.511 94.4796 168.165 96.8532C161.508 99.33 155.729 103.716 151.601 109.495C141.178 124.098 144.583 144.325 159.135 154.748C167.184 160.476 177.504 162.23 187.05 159.444C188.701 158.98 190.353 158.36 191.952 157.638C192.417 157.432 193.139 157.07 193.397 156.606C193.655 156.142 192.933 156.245 192.675 156.348Z" fill="#18181B"/>
<path d="M184.625 158.464C202.407 158.464 216.823 144.048 216.823 126.265C216.823 108.483 202.407 94.0668 184.625 94.0668C166.842 94.0668 152.426 108.483 152.426 126.265C152.426 144.048 166.842 158.464 184.625 158.464Z" fill="#FF9000"/>
<path d="M197.009 154.8C191.075 157.535 184.418 158.36 178.02 157.174C171.983 156.038 166.462 153.097 162.179 148.66C157.638 143.861 154.697 137.772 153.82 131.219C151.394 113.726 163.624 97.5756 181.116 95.0988C183.696 94.7376 186.328 94.686 188.908 94.9956C194.996 95.6148 200.724 98.1432 205.316 102.168C210.218 106.606 213.624 112.488 215.017 118.938C217.752 131.838 212.334 145.099 201.343 152.375C199.95 153.304 198.505 154.129 197.009 154.8C196.493 155.058 198.35 156.606 198.97 156.348C211.508 150.62 219.042 137.566 217.752 123.84C217.081 116.977 214.243 110.476 209.702 105.264C205.11 100.052 199.073 96.2856 192.416 94.428C175.13 89.6292 157.225 99.7944 152.478 117.08C149.795 126.884 151.807 137.359 157.948 145.46C162.127 150.982 167.855 155.11 174.356 157.432C182.406 160.321 191.23 159.96 198.97 156.4C199.486 156.09 197.68 154.49 197.009 154.8Z" fill="#18181B"/>
<path d="M171.776 114.758C172.55 123.943 173.892 133.025 175.749 142.055C176.007 143.19 177.401 144.377 178.587 144.119C179.929 143.758 180.135 142.468 179.877 141.281L179.671 140.3C179.671 140.197 179.516 139.526 179.619 139.939L179.31 138.34C179.103 137.204 178.897 136.121 178.691 134.986C178.329 132.818 177.968 130.651 177.659 128.536C177.039 124.15 176.523 119.712 176.162 115.274C176.059 114.088 175.079 112.643 173.789 112.591C172.499 112.54 171.673 113.572 171.776 114.758Z" fill="#18181B"/>
<path d="M176.369 117.958C178.02 116.977 179.929 116.358 181.89 116.255C182.303 116.203 182.715 116.203 183.128 116.255C183.386 116.255 183.593 116.306 183.851 116.306L184.16 116.358C184.521 116.41 184.109 116.358 184.315 116.358C184.521 116.358 184.779 116.461 185.037 116.513L185.45 116.616C185.502 116.616 185.811 116.719 185.553 116.616C185.295 116.513 185.657 116.668 185.76 116.668L186.018 116.771L186.379 116.926C186.689 117.029 186.482 116.926 186.327 116.874C186.585 116.977 186.843 117.08 187.05 117.235L187.308 117.39C187.669 117.596 186.947 117.132 187.205 117.338C187.308 117.442 187.772 117.854 187.411 117.493L187.617 117.7C187.721 117.803 187.721 117.803 187.566 117.648L187.669 117.803C187.566 117.596 187.824 118.112 187.824 118.164C187.875 118.319 187.927 118.525 187.927 118.68C187.979 119.196 187.927 119.712 187.721 120.176C186.998 122.086 185.141 123.324 183.438 124.253C181.322 125.44 179 126.214 176.575 126.575L180.342 129.568C182.303 128.587 184.521 128.226 186.689 128.536C186.379 128.484 186.74 128.536 186.792 128.536L187.205 128.639C187.463 128.69 187.772 128.742 188.03 128.845C187.566 128.742 188.288 128.948 188.443 129C188.598 129.052 188.701 129.103 188.856 129.155C188.34 128.845 188.907 129.206 189.011 129.258C189.114 129.31 189.372 129.464 189.372 129.464C189.372 129.464 188.804 129.103 189.269 129.413C189.372 129.516 189.991 129.929 189.578 129.619C189.785 129.774 189.991 129.98 190.146 130.135C189.888 129.877 190.352 130.342 190.404 130.445C190.455 130.548 190.559 130.651 190.61 130.754C190.507 130.548 190.662 130.806 190.662 130.858C190.765 131.064 190.868 131.322 190.971 131.528C191.126 132.044 191.178 132.56 191.126 133.128C190.92 134.263 190.404 135.347 189.63 136.172C188.391 137.617 186.74 138.701 184.934 139.217C183.954 139.526 182.922 139.63 181.89 139.578C181.632 139.578 181.374 139.526 181.064 139.526C180.755 139.526 181.374 139.578 181.064 139.526C180.909 139.475 180.755 139.475 180.6 139.423L180.239 139.32C179.671 139.165 180.703 139.526 180.135 139.32C179.877 139.217 179.568 139.114 179.31 138.959C178.794 138.701 177.039 138.34 177.039 139.372C177.039 140.404 178.691 141.229 179.465 141.539C184.315 143.706 190.455 142.829 193.964 138.752C194.945 137.669 195.564 136.379 195.719 134.934C195.822 133.489 195.409 132.096 194.532 130.961C192.623 128.174 189.269 126.472 186.069 125.698C182.767 124.872 179.258 125.233 176.162 126.73C175.285 127.194 176.523 128.381 176.833 128.639C177.659 129.258 178.845 129.877 179.929 129.722C182.561 129.361 185.089 128.484 187.411 127.194C189.423 126.11 191.849 124.511 192.416 122.086C192.777 120.744 192.519 119.299 191.745 118.216C190.817 116.977 189.578 115.997 188.237 115.326C185.811 113.933 183.077 113.21 180.239 113.107C177.452 113.004 174.666 113.726 172.241 115.12C171.312 115.687 172.705 116.926 173.169 117.235C173.943 117.7 175.44 118.525 176.369 117.958Z" fill="#18181B"/>
<path d="M173.324 110.063L173.944 114.604C173.995 114.81 174.46 115.016 174.614 115.068C175.182 115.274 175.75 115.481 176.369 115.584C176.936 115.739 177.556 115.842 178.175 115.842C178.278 115.842 179 115.894 179 115.687L178.381 111.146C178.33 110.94 177.865 110.734 177.71 110.682C177.143 110.476 176.575 110.269 175.956 110.166C175.388 110.011 174.769 109.908 174.15 109.908C173.995 109.96 173.273 109.908 173.324 110.063Z" fill="#18181B"/>
<path d="M179.723 109.34C179.826 109.65 179.877 109.96 179.929 110.321L179.877 109.96C180.135 111.353 180.29 112.798 180.239 114.191C180.29 114.655 180.548 115.016 180.961 115.223C181.529 115.532 182.148 115.739 182.767 115.739C183.386 115.79 184.057 115.687 184.625 115.378C184.986 115.171 185.399 114.862 185.399 114.397C185.45 112.488 185.192 110.63 184.728 108.773C184.625 108.36 183.902 107.999 183.593 107.896C182.973 107.689 182.303 107.586 181.632 107.689C181.064 107.741 180.548 107.947 180.084 108.257L179.826 108.566C179.619 108.824 179.619 109.082 179.723 109.34Z" fill="#18181B"/>
<path d="M177.091 142.003C177.143 142.21 177.194 142.416 177.246 142.622L177.194 142.364C177.504 143.758 177.762 145.202 177.968 146.647C178.071 147.628 179.671 146.905 180.135 146.647C180.755 146.338 181.271 145.925 181.735 145.46L182.096 145.048C182.251 144.841 182.406 144.583 182.406 144.325C182.199 142.571 181.89 140.816 181.425 139.114C181.322 138.804 180.548 138.907 180.393 138.959C179.774 139.114 179.207 139.372 178.742 139.733C178.226 140.042 177.762 140.455 177.349 140.971L177.143 141.384C176.988 141.59 176.988 141.797 177.091 142.003Z" fill="#18181B"/>
<path d="M183.851 140.404L184.47 143.758C184.522 143.912 184.625 144.067 184.78 144.17C184.935 144.377 185.141 144.532 185.347 144.686C185.863 145.099 186.483 145.409 187.102 145.667C187.411 145.77 189.269 146.492 189.114 145.667L188.495 142.313C188.443 142.158 188.34 142.003 188.185 141.9C188.031 141.694 187.824 141.539 187.618 141.384C187.102 140.971 186.483 140.662 185.863 140.404C185.554 140.3 183.696 139.578 183.851 140.404Z" fill="#18181B"/>
<path d="M151.446 111.817C152.684 112.333 153.974 112.694 155.316 112.901C155.832 113.004 156.348 112.643 156.4 112.127C156.4 112.075 156.4 111.972 156.4 111.92C156.245 111.25 155.729 110.785 155.058 110.734L154.594 110.63L154.903 110.682C153.82 110.476 152.788 110.166 151.807 109.753C151.291 109.547 150.466 109.805 150.362 110.424C150.311 110.734 150.362 111.043 150.569 111.25C150.827 111.508 151.085 111.714 151.446 111.817Z" fill="#18181B"/>
<path d="M149.692 119.351C150.93 119.299 152.22 119.506 153.355 119.97C153.458 120.022 153.562 120.022 153.562 119.918C153.562 119.815 153.2 119.506 153.149 119.454C152.736 119.041 152.22 118.732 151.652 118.474C150.414 117.958 149.072 117.751 147.731 117.803C147.473 117.803 148.247 118.474 148.298 118.525C148.556 118.732 148.814 118.938 149.124 119.093C149.33 119.196 149.537 119.299 149.692 119.351Z" fill="#18181B"/>
<path d="M151.549 125.388C150.775 125.594 150.001 125.852 149.176 126.007L147.989 126.317C147.731 126.368 148.195 126.265 147.937 126.317L147.679 126.368L147.06 126.523C146.751 126.575 146.389 126.73 146.131 126.884C145.873 127.039 145.719 127.297 145.615 127.555C145.512 128.123 146.028 128.432 146.493 128.329C148.247 127.968 149.95 127.555 151.653 127.091C151.962 126.988 152.272 126.833 152.478 126.575C152.685 126.368 152.788 126.162 152.788 125.904C152.736 125.233 152.014 125.233 151.549 125.388Z" fill="#18181B"/>
<path d="M152.633 134.521C151.859 134.882 151.085 135.244 150.311 135.553C149.898 135.708 149.537 135.863 149.124 136.018C148.918 136.069 148.711 136.172 148.505 136.224L148.608 136.172L148.453 136.224L148.092 136.327C147.783 136.379 147.525 136.585 147.37 136.792C147.215 136.998 147.163 137.256 147.267 137.462C147.628 137.978 148.299 138.185 148.866 137.978C150.621 137.359 152.323 136.688 153.975 135.863C154.439 135.656 154.8 135.037 154.336 134.624C153.923 134.315 153.201 134.212 152.633 134.521Z" fill="#18181B"/>
<path d="M155.78 142.106C154.335 142.829 152.942 143.603 151.601 144.428C151.343 144.532 151.136 144.738 151.085 144.996C151.033 145.254 151.085 145.46 151.291 145.667C151.807 146.08 152.478 146.131 153.097 145.822C154.439 144.996 155.832 144.222 157.277 143.5C157.741 143.293 158.102 142.674 157.638 142.261C157.07 141.848 156.348 141.797 155.78 142.106Z" fill="#18181B"/>
<path d="M160.889 149.072C160.115 150.156 159.186 151.136 158.102 151.91C157.896 152.117 157.844 152.375 157.896 152.633C157.999 152.942 158.154 153.2 158.412 153.355C158.67 153.562 159.031 153.665 159.341 153.665H159.65C159.805 153.613 160.012 153.562 160.115 153.407C161.198 152.581 162.127 151.652 162.901 150.569C163.004 150.466 163.056 150.362 163.108 150.259C163.159 150.156 163.159 150.001 163.108 149.898C163.004 149.588 162.85 149.33 162.592 149.176C162.334 148.969 161.972 148.866 161.663 148.866C161.353 148.763 161.095 148.866 160.889 149.072Z" fill="#18181B"/>
<path d="M167.236 154.542C166.41 155.11 165.739 155.832 165.172 156.658C165.12 156.709 165.12 156.761 165.12 156.812C165.12 156.864 165.172 156.916 165.275 156.967C165.533 157.07 165.791 157.174 166.049 157.174C166.359 157.225 166.72 157.225 167.029 157.225L167.287 157.174C167.391 157.174 167.545 157.122 167.649 157.07C168.216 156.245 168.887 155.522 169.713 154.955C169.867 154.852 169.661 154.697 169.609 154.697C169.351 154.594 169.145 154.49 168.835 154.439C168.526 154.387 168.165 154.387 167.855 154.387C167.649 154.387 167.442 154.439 167.236 154.542Z" fill="#18181B"/>
<path d="M163.572 82.9212C177.536 82.9212 188.856 71.6012 188.856 57.6372C188.856 43.6732 177.536 32.3532 163.572 32.3532C149.608 32.3532 138.288 43.6732 138.288 57.6372C138.288 71.6012 149.608 82.9212 163.572 82.9212Z" fill="#FF9000"/>
<path d="M179 39.216C186.792 46.0272 189.681 56.8632 186.276 66.6156C184.625 71.3628 181.529 75.4392 177.401 78.2772C173.324 80.9604 168.525 82.2504 163.675 82.0956C153.252 81.6828 144.119 74.9232 140.713 65.016C137.514 55.47 140.403 44.2212 148.401 37.8744C156.193 31.734 167.493 31.6824 175.801 36.8424C176.936 37.5648 178.02 38.3388 179 39.216C179.568 39.6804 181.477 38.0808 181.167 37.8228C177.091 34.314 172.034 32.1468 166.668 31.6824C161.353 31.2696 156.09 32.4048 151.446 34.9848C146.441 37.668 142.416 41.8476 139.836 46.9044C133.592 59.4948 138.752 74.7684 151.343 81.012C153.613 82.1472 156.038 82.9212 158.515 83.334C169.351 85.0884 180.651 79.5672 186.276 70.176C192.674 59.598 190.507 45.9756 181.167 37.8744C180.651 37.3584 178.742 38.958 179 39.216Z" fill="#18181B"/>
<path d="M160.167 80.0832C173.39 80.0832 184.109 69.3638 184.109 56.1408C184.109 42.9178 173.39 32.1984 160.167 32.1984C146.943 32.1984 136.224 42.9178 136.224 56.1408C136.224 69.3638 146.943 80.0832 160.167 80.0832Z" fill="#FF9000"/>
<path d="M175.079 38.0292C182.354 44.376 184.883 54.9024 181.477 63.8808C177.968 73.1172 169.093 79.2576 159.237 79.2576C154.645 79.2576 150.207 77.8644 146.492 75.1812C142.674 72.3432 139.836 68.3184 138.443 63.7776C135.605 54.3864 138.752 44.2212 146.389 38.0808C153.665 32.3016 164.501 31.1664 172.499 36.12C173.479 36.7392 174.459 37.4616 175.337 38.2356C175.595 38.4936 176.42 39.0612 176.833 38.8548C177.246 38.6484 176.523 38.0292 176.369 37.926C172.344 34.4688 167.39 32.25 162.127 31.6308C148.917 30.0828 136.895 39.5256 135.347 52.7352C135.089 55.1088 135.14 57.4824 135.553 59.8044C137.411 70.1244 146.079 78.4836 156.348 80.4444C161.25 81.3732 166.255 80.8056 170.847 78.8448C183.077 73.4784 188.598 59.2368 183.231 47.0076C182.251 44.7888 180.961 42.7764 179.413 40.9704C178.536 39.9384 177.607 39.0096 176.627 38.1324C176.214 37.7712 175.595 37.2552 175.079 37.3068C174.563 37.3584 174.821 37.8228 175.079 38.0292Z" fill="#18181B"/>
<path d="M158.515 42.8796C154.129 48.4008 150.105 54.18 146.389 60.1656C145.77 61.146 146.905 62.436 147.679 62.9004C148.453 63.3648 150.105 63.984 150.724 62.952C154.387 56.9664 158.464 51.1872 162.85 45.666C163.056 45.2532 163.056 44.7372 162.85 44.3244C162.54 43.7568 162.127 43.2924 161.56 42.9312C160.683 42.3636 159.238 41.8992 158.515 42.8796Z" fill="#18181B"/>
<path d="M160.527 46.2336C160.166 46.1304 160.115 46.1304 160.424 46.2336C160.734 46.3368 160.682 46.2852 160.321 46.182C159.134 45.8724 157.896 46.5948 157.586 47.7816C157.277 48.9684 157.999 50.2068 159.186 50.5164C160.373 50.826 161.611 50.1036 161.921 48.9168C162.23 47.8332 161.663 46.698 160.631 46.2336L161.147 46.4916C160.734 46.2852 161.405 46.6464 161.456 46.698C162.127 47.1108 162.746 47.6268 163.262 48.1944C164.449 49.4328 165.584 51.342 165.636 53.0964C165.739 54.0252 165.275 54.954 164.501 55.47C163.933 55.8312 163.314 56.0376 162.643 55.986C162.953 55.986 161.972 55.8828 162.333 55.9344C162.488 55.9344 162.437 55.9344 162.179 55.8828L161.714 55.7796C162.333 55.8828 161.405 55.6764 161.301 55.6764C160.682 55.5216 161.663 55.8312 161.095 55.6248C160.992 55.5732 160.166 55.2636 160.631 55.47C159.702 55.1088 158.825 54.5928 157.999 54.0252L155.883 54.7992C155.471 54.696 155.677 54.7476 155.935 54.8508C155.471 54.696 155.987 54.8508 156.141 54.954C156.296 55.0572 156.141 54.954 156.09 54.9024L156.348 55.0572C156.554 55.1604 156.709 55.2636 156.915 55.4184C157.483 55.8312 158.051 56.3472 158.515 56.9148C159.599 58.1532 160.218 59.7012 160.424 61.3524C160.527 63.1068 159.805 64.758 158.102 65.3772C157.793 65.4804 157.431 65.5836 157.07 65.6352C156.915 65.6352 156.812 65.6868 156.657 65.6868C156.503 65.6868 155.987 65.6352 156.348 65.6868C156.141 65.6868 155.832 65.5836 156.245 65.6868C155.935 65.6352 155.78 65.5836 156.193 65.6868C155.729 65.5836 156.657 65.8416 156.038 65.6352C155.78 65.532 156.141 65.6868 156.193 65.6868L155.883 65.532C155.883 65.532 155.574 65.3772 155.78 65.4804C155.987 65.5836 155.522 65.3256 155.522 65.3256C155.419 65.2224 155.109 65.0676 155.058 65.016C154.748 64.758 154.439 64.5 154.129 64.1904C153.51 63.5196 153.045 62.7972 152.736 61.9716C152.581 61.6104 152.013 61.3524 151.704 61.1976C151.085 60.888 150.465 60.7332 149.795 60.5784C149.485 60.5268 147.473 60.2172 147.782 60.9912C148.659 63.0036 150.207 64.6032 152.168 65.6352C154.8 67.1316 157.793 67.7508 160.734 67.4928C162.953 67.2348 165.068 66.048 165.378 63.6744C165.636 61.6104 164.759 59.3916 163.52 57.792C161.714 55.4184 159.134 54.0768 156.348 53.1996C155.729 52.9932 154.593 52.7352 153.974 53.0448C153.355 53.3544 153.923 53.7156 154.284 53.9736C156.399 55.4184 158.721 56.4504 161.198 57.0696C163.572 57.6888 166.668 58.4112 168.938 57.1728C172.911 55.1088 169.248 49.6392 166.977 47.6784C164.862 45.9756 162.333 44.7888 159.65 44.2728C159.289 44.1696 157.38 43.9116 157.689 44.6856C157.793 45.0468 158.463 45.3048 158.721 45.4596C159.237 45.8724 159.908 46.0788 160.527 46.2336Z" fill="#18181B"/>
<path d="M161.972 41.3316L159.857 44.2728C159.702 44.5308 159.599 44.7888 159.599 45.0984C159.547 45.408 159.547 45.7176 159.65 45.9756C159.754 46.2852 159.857 46.5948 160.115 46.8012C160.321 47.1108 160.528 47.3172 160.837 47.5236C161.405 47.8848 162.076 48.0396 162.695 47.988L163.262 47.8332C163.624 47.6784 163.933 47.4204 164.191 47.1108L166.307 44.1696C166.462 43.9116 166.565 43.6536 166.565 43.344C166.616 43.0344 166.616 42.7248 166.513 42.4668C166.462 42.1572 166.307 41.8476 166.049 41.6412C165.842 41.3316 165.636 41.1252 165.326 40.9188C164.759 40.5576 164.088 40.4028 163.469 40.4544L162.901 40.6092C162.488 40.764 162.179 41.022 161.972 41.3316Z" fill="#18181B"/>
<path d="M166.668 43.7052C166.513 44.0148 166.358 44.2728 166.152 44.5308L166.358 44.2212C165.791 45.0984 165.12 45.924 164.397 46.6464C164.139 47.0076 164.088 47.4204 164.191 47.8332C164.243 48.1428 164.397 48.4008 164.552 48.6588C164.707 48.9684 164.913 49.2264 165.12 49.4844C165.533 49.9488 166.049 50.31 166.668 50.568C167.029 50.6712 167.545 50.7744 167.906 50.4648C168.938 49.3812 169.867 48.1944 170.589 46.8528C170.641 46.6464 170.641 46.44 170.589 46.182C170.589 45.924 170.486 45.666 170.331 45.408C170.177 45.0984 170.022 44.8404 169.815 44.5824C169.609 44.3244 169.351 44.0664 169.093 43.86L168.577 43.4988C168.267 43.2924 167.958 43.1892 167.597 43.1376L167.184 43.1892C166.977 43.2924 166.771 43.4472 166.668 43.7052Z" fill="#18181B"/>
<path d="M147.576 60.7848L147.37 61.0944L147.679 60.5784C147.112 61.6104 146.441 62.5908 145.718 63.5712C145.357 64.0356 145.202 64.7064 145.357 65.274C145.409 65.5836 145.564 65.8416 145.77 66.0996C145.925 66.3576 146.183 66.6156 146.441 66.7704C147.008 67.1832 147.679 67.338 148.402 67.2348C149.021 67.1832 149.588 66.8736 150.001 66.4092C150.878 65.1708 151.704 63.9324 152.426 62.5908C152.53 62.3328 152.581 62.0232 152.53 61.7136C152.53 61.404 152.426 61.0944 152.272 60.8364C152.117 60.5268 151.91 60.3204 151.652 60.114C151.394 59.856 151.136 59.7012 150.775 59.598C150.156 59.34 149.485 59.34 148.814 59.598L148.298 59.9076C147.989 60.114 147.731 60.4752 147.576 60.7848Z" fill="#18181B"/>
<path d="M151.188 65.7384L149.743 68.0088C149.589 68.112 149.537 68.3184 149.537 68.4732C149.485 68.628 149.537 68.7828 149.692 68.886C149.847 69.0408 150.001 69.144 150.208 69.1956C150.466 69.2988 150.724 69.3504 150.982 69.3504C151.653 69.402 152.323 69.2988 152.943 69.0924L153.51 68.886C153.82 68.7312 154.078 68.5764 154.336 68.3184L155.781 66.048C155.935 65.9448 155.987 65.7384 155.987 65.5836C156.039 65.4288 155.987 65.274 155.832 65.1708C155.677 65.016 155.523 64.9128 155.316 64.8612C155.058 64.758 154.8 64.7064 154.542 64.7064C153.871 64.6548 153.201 64.758 152.581 64.9644L152.014 65.1708C151.704 65.274 151.446 65.4804 151.188 65.7384Z" fill="#18181B"/>
<path d="M161.56 82.818C161.56 81.786 161.405 80.7024 161.147 79.6704C161.044 79.3608 160.889 79.1028 160.631 78.948C160.373 78.7416 160.012 78.6384 159.702 78.6384C159.393 78.6384 159.135 78.7416 158.928 78.948C158.722 79.1544 158.67 79.464 158.722 79.722C158.928 80.4444 159.031 81.2184 159.083 81.9924V81.7344C159.083 81.9408 159.083 82.1472 159.135 82.3536C159.135 82.6632 159.238 82.9212 159.444 83.1792C159.651 83.4372 159.96 83.6436 160.321 83.6952C160.631 83.7468 160.941 83.6952 161.199 83.592C161.405 83.3856 161.56 83.1276 161.56 82.818Z" fill="#18181B"/>
<path d="M168.009 81.5796C167.7 80.9088 167.442 80.238 167.339 79.5156L167.39 79.722C167.339 79.464 167.339 79.1544 167.287 78.8964C167.287 78.3288 166.513 78.3804 166.152 78.5352C165.842 78.6384 165.533 78.7932 165.275 78.9996C165.12 79.1544 164.862 79.3608 164.913 79.6188C164.965 80.7024 165.223 81.7344 165.739 82.7148C165.842 82.8696 166.049 82.9728 166.255 82.9728C166.565 82.9728 166.874 82.9212 167.184 82.7664C167.493 82.6632 167.751 82.4568 167.958 82.1988C167.958 82.044 168.113 81.8376 168.009 81.5796Z" fill="#18181B"/>
<path d="M170.59 78.174C171.415 79.1544 172.241 80.1864 173.015 81.2184C173.221 81.4764 173.479 81.6828 173.789 81.786C174.047 81.8892 174.356 81.8376 174.563 81.6828C174.976 81.2184 174.976 80.496 174.563 80.0316C173.789 78.9996 173.015 77.9676 172.138 76.9872C171.931 76.7292 171.673 76.5228 171.364 76.4196C171.106 76.3164 170.796 76.368 170.59 76.5228C170.125 77.0388 170.125 77.7612 170.59 78.174Z" fill="#18181B"/>
<path d="M176.885 73.8396L177.659 74.4588C177.762 74.562 177.917 74.6652 178.02 74.7684L178.226 74.9232C178.742 75.3876 179.207 75.852 179.671 76.3164C179.929 76.5744 180.187 76.7292 180.497 76.884C180.651 76.9356 181.013 77.0904 181.167 76.9872C181.632 76.7808 181.116 76.11 180.909 75.9036C179.877 74.82 178.794 73.8396 177.659 72.9108C177.401 72.7044 177.143 72.5496 176.833 72.4464C176.678 72.3948 176.369 72.3432 176.317 72.498C176.214 72.6528 176.265 72.8592 176.369 73.0656C176.42 73.4268 176.627 73.6848 176.885 73.8396Z" fill="#18181B"/>
<path d="M181.116 69.6084C182.096 70.3824 183.077 71.1564 184.109 71.8272C184.367 72.0336 184.625 72.1368 184.934 72.1368C185.192 72.1368 185.45 71.982 185.605 71.724C185.863 71.1048 185.657 70.434 185.141 70.0728C184.109 69.402 183.077 68.628 182.148 67.854C181.89 67.6476 181.632 67.5444 181.322 67.5444C181.064 67.5444 180.806 67.6992 180.652 67.9572C180.394 68.5248 180.6 69.1956 181.116 69.6084Z" fill="#18181B"/>
<path d="M185.244 63.6744C185.45 63.726 185.605 63.7776 185.812 63.7776L185.554 63.726C186.276 63.9324 186.998 64.1904 187.618 64.5L187.36 64.3968L187.618 64.5516C187.824 64.7064 188.082 64.758 188.34 64.7064C188.546 64.6548 188.701 64.4484 188.701 64.242C188.701 63.9324 188.65 63.6744 188.495 63.4164C188.34 63.1068 188.082 62.8488 187.824 62.694C186.74 62.0748 185.605 61.662 184.367 61.404C184.16 61.3524 183.954 61.5072 183.851 61.662C183.748 61.92 183.748 62.178 183.851 62.3844C184.16 63.0552 184.625 63.5196 185.244 63.6744Z" fill="#18181B"/>
<path d="M186.379 57.276C187.102 57.6888 187.927 57.9984 188.753 58.1532C188.959 58.2048 189.166 58.1532 189.269 57.9984C189.372 57.792 189.372 57.534 189.269 57.276C189.166 56.9664 189.011 56.6568 188.804 56.3988L188.598 56.1924C188.443 56.0892 188.288 55.986 188.134 55.9344C187.618 55.8312 187.153 55.728 186.637 55.5216L186.844 55.6248C186.586 55.5216 186.379 55.4184 186.173 55.2636C186.018 55.1604 185.76 55.1088 185.554 55.212C185.399 55.3668 185.347 55.5732 185.347 55.7796C185.399 56.0892 185.502 56.3988 185.657 56.6568C185.863 56.8632 186.121 57.1212 186.379 57.276Z" fill="#18181B"/>
<path d="M157.38 168.319C162.437 171.364 168.113 173.17 173.892 174.15C179.671 175.13 185.863 175.234 191.384 172.757C194.068 171.57 196.39 169.712 198.144 167.339C198.918 166.255 197.164 164.398 196.338 165.533C193.345 169.661 188.495 171.725 183.541 172.241C180.6 172.499 177.659 172.396 174.769 171.88C172.034 171.467 169.3 170.848 166.668 170.022C163.675 169.093 160.837 167.855 158.154 166.255C157.741 165.946 157.122 165.997 156.812 166.462C156.761 166.513 156.709 166.565 156.709 166.668C156.554 167.236 156.812 167.958 157.38 168.319Z" fill="#FF9000"/>
<path d="M134.315 26.7804C125.956 30.96 123.066 41.0736 122.499 49.6908C121.828 59.856 124.15 69.918 129.155 78.7932C129.774 79.8768 130.393 80.9088 131.064 81.8892C131.735 82.9728 132.509 83.9532 133.386 84.8304C134.315 85.7076 135.502 86.2236 136.792 86.2752C137.463 86.3268 138.082 86.172 138.649 85.914C139.114 85.6044 139.475 85.14 139.63 84.624C140.352 82.7148 139.939 80.5476 138.598 78.9996C137.153 77.3484 134.625 76.8324 132.561 77.2968C130.29 77.7096 128.484 79.3608 127.865 81.6312C127.194 84.0564 127.194 86.7396 127.039 89.2164C126.781 94.3764 126.781 99.6912 125.337 104.696C124.15 109.082 121.467 112.952 117.803 115.687C114.397 118.164 110.269 119.506 106.038 119.506C105.058 119.506 104.077 119.351 103.097 119.196C102.633 119.093 101.755 119.196 101.497 119.712C101.239 120.228 102.013 120.486 102.426 120.589C111.147 122.24 120.744 118.216 125.44 110.63C128.123 106.244 128.949 101.033 129.31 95.976C129.516 93.396 129.568 90.7644 129.723 88.1844C129.774 86.8428 129.877 85.5528 130.032 84.2112C130.084 82.9728 130.445 81.7344 130.961 80.5992C131.941 78.8964 134.16 78.0192 135.811 79.2576C137.617 80.5992 137.875 83.3856 136.689 85.2432L136.998 84.9336C136.792 85.0368 136.637 84.882 136.482 84.7788C136.018 84.5208 135.605 84.2112 135.244 83.7984C134.521 82.9728 133.851 82.1472 133.283 81.1668C129.619 75.4908 127.039 69.1956 125.801 62.5392C124.975 58.1532 124.717 53.664 125.079 49.2264C125.337 45.0984 126.265 41.0736 127.813 37.2552C129.516 33.282 132.199 29.7216 136.121 27.7608C136.637 27.5028 136.534 26.9868 136.121 26.7288C135.553 26.4708 134.883 26.4708 134.315 26.7804Z" fill="#FF9000"/>
</svg>
