<svg width="608" height="120" viewBox="0 0 608 120" fill="none" xmlns="http://www.w3.org/2000/svg">
<path d="M199.1 105C194.7 105 190.3 104.9 185.8 104.6C181.3 104.3 177.4 103.7 174 102.9V22.1C175.8 21.8 177.6 21.5 179.6 21.2C181.6 20.9 183.6 20.7 185.7 20.5C187.8 20.3 189.8 20.2 191.9 20.1C193.9 20.1 195.9 20 197.7 20C202.7 20 207.4 20.4 211.7 21.1C216 21.9 219.8 23.1 222.9 24.9C226.1 26.7 228.5 29 230.3 31.9C232.1 34.8 232.9 38.3 232.9 42.6C232.9 46.9 232 49.9 230.1 52.7C228.2 55.5 225.6 57.7 222.2 59.4C227.2 61.1 231 63.6 233.4 66.8C235.8 70.1 237 74.2 237 79.3C237 87.9 233.9 94.3 227.6 98.6C221.4 102.9 211.8 105 198.9 105H199.1ZM188.9 54.8H199.6C205.4 54.8 209.9 54 213.2 52.3C216.5 50.7 218.1 47.7 218.1 43.5C218.1 39.3 216.4 36.7 213 35C209.6 33.3 205.2 32.5 199.7 32.5C194.2 32.5 195.3 32.5 193.5 32.6C191.7 32.6 190.2 32.8 188.9 33V54.8ZM188.9 66.6V91.9C190.6 92.1 192.4 92.2 194.3 92.3C196.2 92.3 198 92.4 199.6 92.4C202.7 92.4 205.6 92.2 208.3 91.8C211 91.4 213.3 90.7 215.3 89.7C217.3 88.7 218.8 87.4 220 85.7C221.2 84 221.7 81.9 221.7 79.2C221.7 74.5 220 71.2 216.5 69.4C213.1 67.6 208.3 66.6 202.2 66.6H188.9Z" fill="#FF9100"/>
<path d="M268.3 23C268.3 25.7 267.4 27.9 265.7 29.5C263.9 31.1 261.9 31.9 259.5 31.9C257.1 31.9 254.9 31.1 253.1 29.5C251.3 27.9 250.5 25.7 250.5 23C250.5 20.3 251.4 18 253.1 16.4C254.9 14.8 257 14 259.5 14C262 14 264 14.8 265.7 16.4C267.5 18 268.3 20.2 268.3 23ZM266.8 104.1H252.3V41.3H266.8V104.1Z" fill="#FF9100"/>
<path d="M284.5 24.7984L299 22.3984V41.3984H321.3V53.4984H299V79.0984C299 84.0984 299.8 87.6984 301.4 89.8984C303 92.0984 305.7 93.0984 309.6 93.0984C313.5 93.0984 314.6 92.7984 316.6 92.2984C318.6 91.6984 320.3 91.1984 321.5 90.6984L323.9 102.198C322.2 102.898 320 103.698 317.3 104.398C314.6 105.198 311.4 105.498 307.7 105.498C304 105.498 299.5 104.898 296.5 103.698C293.5 102.498 291.1 100.798 289.4 98.4984C287.6 96.1984 286.4 93.4984 285.7 90.1984C285 86.9984 284.6 83.2984 284.6 79.0984V24.6984L284.5 24.7984Z" fill="#FF9100"/>
<path d="M426.6 21.0938L387.6 89.6938L367.3 21.0938H354.7L343 105.094H353.8L362.6 41.4938L381.3 105.094H389.5L425.7 41.7938L416.7 105.094H427.5L439.3 21.0938H426.6Z" fill="url(#paint0_linear_538_441)"/>
<path d="M463 106.494C456.3 106.494 451.3 104.894 447.9 101.794C444.6 98.6938 442.9 94.8937 442.9 90.4937C442.9 86.0937 444.1 82.2937 446.6 78.9937C449 75.6937 452.4 73.1937 456.7 71.3937C461 69.5937 465.9 68.6938 471.5 68.6938C477.1 68.6938 478 68.9937 480.7 69.4937C483.4 69.9937 485.6 70.5938 487.3 71.0938L487.7 68.2938C488.5 63.1938 487.7 59.3938 485.4 56.7938C483.1 54.2938 479.7 52.9937 475.2 52.9937C470.7 52.9937 468.1 53.7938 465.2 55.2938C462.3 56.7938 460.3 59.3937 459.1 62.9937H447.9C449 58.7937 451 55.1937 453.8 52.3937C456.6 49.5937 460 47.4937 463.9 46.0938C467.8 44.6938 471.8 44.0938 476 44.0938C484.6 44.0938 490.7 46.2938 494.4 50.7938C498.1 55.2938 499.5 61.1938 498.4 68.5938L495.4 89.4937C495.1 92.1937 495.3 93.8938 496.1 94.6938C496.9 95.3938 498.4 95.7938 500.8 95.7938H501.8L500.5 105.194H497.9C494.1 105.194 491 104.594 488.7 103.294C486.4 101.994 485.1 99.4938 484.7 95.5938C482.4 98.6938 479.4 101.294 475.9 103.494C472.3 105.594 468 106.694 463 106.694V106.494ZM454.1 88.9937C454.1 91.5937 455.1 93.6938 457 95.1938C459 96.6938 461.8 97.4937 465.5 97.4937C469.2 97.4937 474.3 95.9937 478 92.8937C481.7 89.8937 484.3 85.1937 485.7 78.8937C484 78.2937 481.9 77.7937 479.4 77.3937C476.9 76.9937 474.3 76.6938 471.7 76.6938C467.6 76.6938 464.3 77.2937 461.6 78.3937C459 79.5937 457 81.0937 455.8 82.8937C454.6 84.6937 454 86.6937 454 88.8937L454.1 88.9937Z" fill="url(#paint1_linear_538_441)"/>
<path d="M528.599 105.095C525.199 105.095 522.499 104.695 520.299 103.795C518.099 102.895 516.499 101.295 515.599 98.9953C514.699 96.6953 514.499 93.3953 515.199 89.1953L520.099 54.7953H509.699L510.999 45.6953H521.299L523.299 31.1953H534.099L532.099 45.6953H547.599L546.299 54.7953H530.899L526.199 87.7953C525.799 90.3953 525.699 92.1953 525.999 93.3953C526.299 94.5953 526.999 95.2953 528.199 95.5953C529.399 95.8953 531.199 95.9953 533.699 95.9953H539.599L538.299 105.195H528.699L528.599 105.095Z" fill="url(#paint2_linear_538_441)"/>
<path d="M606.2 58.3937C604.5 54.1937 601.7 50.6937 597.7 48.0938C593.8 45.4938 588.8 44.0938 582.8 44.0938C576.8 44.0938 571.8 45.3937 567.1 47.8937C562.4 50.4937 558.5 53.9938 555.3 58.5938C552.1 63.1938 550.1 68.4938 549.2 74.5938C548.3 80.7938 548.8 86.1937 550.7 90.9937C552.6 95.7937 555.6 99.5938 559.8 102.294C564 105.094 569 106.394 574.8 106.394C580.6 106.394 583.7 105.494 587.5 103.794C591.3 102.094 594.7 99.6938 597.5 96.7938C600.3 93.7938 602.5 90.5937 604 86.9937H593.1C591.4 90.1937 589.1 92.6938 586 94.5938C583 96.4938 579.5 97.3937 575.7 97.3937C571.9 97.3937 569.3 96.4938 566.6 94.7938C563.9 92.9938 561.8 90.4938 560.5 87.2938C559.3 84.5938 559 81.2938 559.4 77.5938H606.7C606.9 76.5938 607.1 75.6937 607.2 74.8937C607.3 74.0937 607.4 73.1938 607.5 72.2938C608.3 67.1938 607.8 62.4938 606.1 58.2938L606.2 58.3937ZM597.4 69.7938H560.8C561.6 66.9938 562.8 64.3938 564.5 62.1938C566.7 59.2938 569.3 56.9937 572.3 55.4937C575.3 53.8937 578.5 53.1938 581.8 53.1938C586.9 53.1938 590.9 54.6938 593.8 57.5938C596.7 60.5938 597.9 64.5938 597.4 69.7938Z" fill="url(#paint3_linear_538_441)"/>
<path d="M120 57.4V12C120 5.4 114.6 0 108 0H62.5C68.4 34.4 85.6 51.5 120 57.4Z" fill="#FF9100"/>
<path d="M57.5 0H12C5.4 0 0 5.4 0 12V57.4C34.4 51.5 51.6 34.4 57.5 0Z" fill="#FF9100"/>
<path d="M62.4004 119.997H108C114.6 119.997 120 114.597 120 107.997V62.2969C85.5004 68.1969 68.3004 85.3969 62.4004 119.997Z" fill="#FF9100"/>
<path d="M0 62.2969V107.997C0 114.597 5.4 119.997 12 119.997H57.6C51.7 85.3969 34.6 68.1969 0 62.2969Z" fill="#FF9100"/>
<path d="M60 72C66.6274 72 72 66.6274 72 60C72 53.3726 66.6274 48 60 48C53.3726 48 48 53.3726 48 60C48 66.6274 53.3726 72 60 72Z" fill="#FF9100"/>
<defs>
<linearGradient id="paint0_linear_538_441" x1="343" y1="63.7937" x2="608" y2="63.7937" gradientUnits="userSpaceOnUse">
<stop stop-color="#FF9100"/>
<stop offset="1" stop-color="#DB00E9"/>
</linearGradient>
<linearGradient id="paint1_linear_538_441" x1="343" y1="63.7938" x2="608" y2="63.7938" gradientUnits="userSpaceOnUse">
<stop stop-color="#FF9100"/>
<stop offset="1" stop-color="#DB00E9"/>
</linearGradient>
<linearGradient id="paint2_linear_538_441" x1="342.999" y1="63.7953" x2="607.999" y2="63.7953" gradientUnits="userSpaceOnUse">
<stop stop-color="#FF9100"/>
<stop offset="1" stop-color="#DB00E9"/>
</linearGradient>
<linearGradient id="paint3_linear_538_441" x1="343" y1="63.7938" x2="608" y2="63.7938" gradientUnits="userSpaceOnUse">
<stop stop-color="#FF9100"/>
<stop offset="1" stop-color="#DB00E9"/>
</linearGradient>
</defs>
</svg>
